
<svg version="1.0" xmlns="http://www.w3.org/2000/svg"
 width="326.000000pt" height="404.000000pt" viewBox="0 0 326.000000 404.000000"
 preserveAspectRatio="xMidYMid meet">

<g transform="translate(0.000000,404.000000) scale(0.100000,-0.100000)"
fill="#000000" stroke="none">
<path d="M1613 3930 c-24 -10 -31 -34 -13 -45 6 -3 7 1 4 9 -9 24 24 31 56 12
16 -9 35 -16 44 -16 9 0 25 -9 37 -21 19 -19 23 -19 36 -6 13 13 12 18 -13 46
-27 30 -84 45 -84 21 0 -5 3 -9 8 -9 4 1 16 1 27 0 20 -2 20 -2 1 -13 -16 -9
-23 -7 -35 8 -19 22 -37 26 -68 14z"/>
<path d="M1562 3875 c-6 -14 -8 -25 -3 -25 8 0 23 41 17 47 -1 2 -8 -8 -14
-22z"/>
<path d="M1628 3893 c7 -3 16 -2 19 1 4 3 -2 6 -13 5 -11 0 -14 -3 -6 -6z"/>
<path d="M1785 3840 c3 -5 8 -10 11 -10 2 0 4 5 4 10 0 6 -5 10 -11 10 -5 0
-7 -4 -4 -10z"/>
<path d="M1543 3803 c-10 -4 -9 -8 1 -19 18 -17 46 -19 46 -2 0 6 -3 8 -7 5
-3 -4 -11 -1 -17 7 -6 8 -17 12 -23 9z"/>
<path d="M1865 3790 c4 -6 9 -9 13 -6 4 2 17 -10 30 -25 15 -18 19 -29 11 -29
-9 0 -7 -4 3 -12 9 -7 18 -22 21 -33 3 -11 5 -4 6 17 1 27 -5 41 -20 52 -12 8
-18 19 -15 24 3 6 -1 13 -10 16 -24 9 -46 7 -39 -4z"/>
<path d="M1160 3753 c-8 -3 -17 -9 -20 -12 -3 -4 -18 -12 -34 -19 -17 -8 -25
-16 -20 -20 12 -9 16 -50 4 -57 -4 -2 -14 3 -21 12 -10 12 -10 14 -1 9 7 -4
12 -1 12 8 0 9 -4 16 -9 16 -10 0 -23 -31 -20 -46 4 -21 -2 -45 -9 -40 -4 2
-8 -4 -8 -14 0 -11 2 -17 5 -15 6 7 41 -36 41 -50 0 -7 7 -16 16 -19 23 -9 36
-7 29 4 -3 5 -1 19 6 32 9 17 9 24 -3 32 -8 6 -17 18 -20 27 -8 20 27 125 37
110 5 -9 10 -9 21 0 13 11 44 9 118 -6 l29 -6 -32 31 c-33 30 -79 39 -121 23z
m0 -23 c0 -5 -5 -10 -11 -10 -5 0 -7 5 -4 10 3 6 8 10 11 10 2 0 4 -4 4 -10z"/>
<path d="M2092 3733 c-19 -4 -21 -7 -11 -19 13 -16 65 -19 74 -4 9 15 25 2 18
-15 -3 -10 1 -15 12 -15 10 0 13 5 9 12 -4 7 -3 8 4 4 7 -4 12 -14 12 -21 0
-9 6 -12 17 -8 11 4 14 3 9 -5 -7 -12 6 -17 17 -6 9 9 -42 57 -76 72 -28 12
-43 13 -85 5z"/>
<path d="M1310 3680 c0 -5 5 -10 10 -10 6 0 10 5 10 10 0 6 -4 10 -10 10 -5 0
-10 -4 -10 -10z"/>
<path d="M1997 3632 c-13 -64 16 -119 60 -114 12 2 23 -1 23 -7 0 -6 -4 -11
-10 -11 -5 0 -10 -5 -10 -11 0 -7 11 -9 28 -5 15 3 21 3 15 0 -7 -3 -13 -13
-13 -21 0 -12 -7 -14 -32 -9 -33 6 -33 6 -10 -9 12 -9 31 -14 41 -10 13 4 21
0 24 -12 4 -14 5 -13 6 5 0 12 -3 22 -9 22 -5 0 -10 5 -10 11 0 6 9 8 22 3 21
-6 22 -6 6 18 -16 24 -16 26 7 38 20 11 27 11 40 0 8 -7 15 -18 15 -24 0 -6 4
-17 9 -25 8 -12 11 -12 23 0 8 8 20 29 27 47 13 30 31 44 31 23 0 -10 39 -27
53 -23 5 1 5 -7 2 -19 -5 -15 -4 -19 4 -15 6 4 11 2 11 -4 0 -6 5 -8 11 -5 6
4 13 -2 16 -14 3 -12 9 -21 13 -21 5 0 16 -3 24 -6 12 -5 15 -2 10 10 -4 10
-13 15 -21 12 -8 -3 -11 -1 -8 4 7 11 -18 40 -34 40 -6 0 -11 9 -11 20 0 11
-4 20 -8 20 -5 0 -15 12 -22 28 -18 34 -41 62 -51 62 -5 0 -6 -7 -3 -15 4 -9
-3 -16 -19 -20 -18 -5 -23 -12 -20 -26 7 -27 -7 -24 -44 11 l-33 31 -33 -34
c-30 -32 -34 -33 -55 -19 -12 8 -22 21 -22 28 0 8 -4 14 -10 14 -5 0 -6 7 -3
17 4 10 2 14 -5 9 -6 -4 -12 3 -14 16 -3 19 -5 17 -11 -10z"/>
<path d="M1896 3594 c-6 -15 -4 -15 11 -3 10 7 20 15 22 16 2 2 -3 3 -11 3 -9
0 -19 -7 -22 -16z"/>
<path d="M1158 3563 c7 -3 16 -2 19 1 4 3 -2 6 -13 5 -11 0 -14 -3 -6 -6z"/>
<path d="M1283 3556 c7 -18 -12 -36 -31 -29 -10 4 -13 2 -8 -5 11 -17 23 -15
46 10 24 26 25 38 4 38 -10 0 -14 -6 -11 -14z"/>
<path d="M1225 3490 c-4 -6 -11 -7 -17 -4 -6 4 -14 0 -19 -7 -14 -23 -10 -32
8 -18 15 12 16 12 10 -3 -5 -14 -1 -18 15 -18 17 0 18 2 8 15 -11 13 -10 18 6
30 10 8 14 15 7 15 -6 0 -15 -5 -18 -10z"/>
<path d="M2170 3469 c-13 -8 -13 -10 0 -19 12 -8 11 -10 -8 -10 -13 0 -21 -4
-17 -10 6 -9 55 7 55 19 -1 18 -17 29 -30 20z"/>
<path d="M875 3430 c-3 -5 -1 -10 4 -10 6 0 11 5 11 10 0 6 -2 10 -4 10 -3 0
-8 -4 -11 -10z"/>
<path d="M1716 3407 c-17 -18 -24 -33 -18 -35 15 -5 22 -3 21 4 -1 3 12 19 27
35 18 18 22 29 13 28 -8 0 -27 -14 -43 -32z"/>
<path d="M1890 3386 c0 -8 6 -16 13 -19 6 -2 8 -8 4 -13 -5 -5 -14 -2 -20 7
-15 19 -45 31 -52 20 -2 -5 2 -14 10 -21 8 -7 15 -9 15 -4 0 5 7 1 14 -8 7
-10 28 -19 47 -22 19 -2 46 -7 61 -11 22 -6 26 -4 24 12 -2 10 -10 17 -20 15
-9 -2 -16 4 -16 11 0 8 -7 18 -16 21 -21 8 -24 8 -24 -4 0 -5 7 -10 15 -10 8
0 15 -4 15 -10 0 -22 -29 -8 -42 20 -14 32 -28 40 -28 16z"/>
<path d="M1586 3382 c-2 -4 4 -9 15 -9 10 -1 19 2 19 8 0 11 -27 12 -34 1z"/>
<path d="M1755 3370 c-3 -5 -1 -10 4 -10 6 0 11 5 11 10 0 6 -2 10 -4 10 -3 0
-8 -4 -11 -10z"/>
<path d="M2508 3373 c6 -2 12 -12 12 -21 0 -15 2 -15 10 -2 9 15 -4 30 -25 29
-5 0 -4 -3 3 -6z"/>
<path d="M1275 3321 c-16 -9 -30 -22 -31 -28 -2 -28 -4 -33 -15 -33 -5 0 -8 4
-5 9 4 5 -9 4 -28 -1 -23 -7 -39 -20 -47 -39 -12 -30 -23 -36 -34 -19 -10 15
-35 12 -35 -5 0 -8 -4 -15 -10 -15 -5 0 -10 -5 -10 -11 0 -14 -25 -39 -39 -39
-10 0 -15 -14 -12 -34 4 -20 -11 -45 -25 -39 -7 3 -14 0 -14 -6 0 -6 5 -11 12
-11 6 0 8 -3 4 -7 -4 -5 -14 1 -22 11 -12 18 -14 18 -14 3 0 -10 -7 -20 -16
-24 -9 -3 -13 -12 -9 -21 3 -9 3 -13 -1 -10 -9 10 -54 -42 -54 -63 0 -11 -4
-19 -8 -19 -5 0 -14 -18 -21 -40 -6 -22 -16 -40 -21 -40 -12 0 -70 -153 -70
-184 0 -14 -9 -31 -20 -39 -21 -15 -62 -150 -53 -174 3 -7 1 -13 -5 -13 -5 0
-12 -17 -15 -37 -3 -21 -13 -72 -22 -113 -17 -76 -24 -279 -14 -405 6 -67 26
-136 43 -147 7 -5 6 -8 -3 -8 -11 0 -11 -3 -1 -15 6 -8 9 -19 5 -25 -3 -6 0
-24 9 -41 8 -16 18 -51 22 -77 3 -26 13 -57 21 -70 8 -13 17 -45 20 -72 3 -29
13 -56 24 -66 11 -10 19 -23 19 -30 0 -7 14 -35 30 -61 17 -26 30 -52 30 -59
0 -6 7 -14 15 -18 8 -3 15 -10 15 -16 0 -14 38 -68 68 -97 12 -12 22 -27 22
-33 0 -13 96 -104 153 -144 24 -17 51 -39 61 -48 10 -10 24 -18 32 -18 8 0 14
-3 14 -8 0 -4 15 -13 33 -20 17 -7 48 -20 67 -29 39 -18 102 -34 140 -36 14
-1 28 -6 32 -12 4 -6 60 -10 140 -10 111 0 147 4 216 24 45 13 82 27 82 32 0
4 13 10 29 14 16 3 43 17 62 31 18 13 39 24 46 24 7 0 13 5 13 10 0 6 8 13 18
17 41 14 208 173 247 235 6 9 25 37 43 62 17 26 32 50 32 53 0 3 11 21 25 39
14 18 25 39 25 47 0 8 8 25 18 38 10 13 24 43 32 67 7 23 17 42 21 42 4 0 10
15 14 33 6 31 18 63 36 99 5 10 9 26 9 37 0 10 11 62 25 114 13 53 24 115 24
139 0 24 0 122 0 217 1 96 -3 189 -8 205 -5 17 -12 48 -16 69 l-6 38 -30 -22
c-31 -22 -31 -22 -27 -103 l3 -81 -40 -7 c-22 -4 -68 -7 -101 -7 l-61 -1 -7
48 c-3 26 -10 53 -14 60 -6 8 -38 13 -93 15 l-84 2 3 27 c2 18 -4 31 -18 41
-12 8 -18 20 -15 30 4 8 2 18 -4 22 -10 6 -16 -8 -12 -29 1 -4 -6 -14 -14 -20
-9 -7 -18 -30 -20 -52 -3 -23 -9 -53 -15 -68 -5 -15 -9 -30 -9 -34 1 -4 1 -19
0 -34 -1 -24 -5 -27 -58 -32 -133 -14 -213 -18 -213 -11 0 4 9 22 19 39 10 17
22 46 26 64 3 17 11 32 16 32 5 0 17 18 26 40 15 33 23 40 48 41 56 2 60 4 70
26 5 12 17 24 27 26 11 3 18 15 18 30 0 14 5 29 10 32 6 3 10 -3 10 -14 0 -28
21 -26 54 4 18 17 39 25 62 25 18 0 34 5 34 10 0 6 6 10 13 8 25 -5 87 24 87
40 0 15 2 15 10 2 5 -8 10 -13 11 -10 0 3 2 13 4 24 2 10 13 27 24 38 17 15
19 23 11 38 -6 11 -15 20 -19 20 -5 0 -14 13 -19 30 -7 19 -20 32 -36 36 -25
6 -37 24 -16 24 12 0 13 100 1 118 -5 8 -23 17 -41 21 -34 7 -54 31 -26 31 21
0 20 15 -3 37 -10 10 -22 29 -26 41 -5 19 -12 22 -30 18 -21 -5 -23 -3 -22 29
1 26 -7 43 -28 65 -16 16 -35 30 -42 30 -7 0 -12 6 -11 12 4 17 -40 22 -57 8
-11 -9 -12 -17 -4 -32 12 -23 -4 -40 -31 -35 -14 3 -17 16 -9 46 3 9 -7 15
-26 18 -51 6 -58 12 -53 38 6 28 -24 71 -42 60 -6 -4 -17 -1 -25 5 -12 10 -18
10 -31 -1 -14 -11 -18 -11 -29 4 -7 9 -20 17 -29 17 -24 0 -47 -25 -40 -43 3
-8 -2 -17 -13 -21 -10 -4 -19 -2 -21 4 -21 63 -132 47 -132 -20 0 -13 -50 -13
-70 0 -10 6 -11 10 -2 10 6 0 12 4 12 9 0 13 -64 23 -68 11 -2 -5 -10 -10 -18
-10 -9 0 -12 -5 -9 -10 4 -6 -7 -13 -24 -16 -29 -6 -38 -22 -32 -56 0 -4 -11
-11 -27 -14 -31 -8 -71 -35 -72 -48 0 -5 -8 -14 -17 -21 -15 -11 -15 -16 -3
-44 16 -39 21 -119 9 -127 -5 -3 -9 -14 -9 -25 0 -17 -19 -28 -21 -11 0 4 -2
19 -4 35 -2 15 1 27 6 27 5 0 9 10 9 23 0 18 -2 19 -10 7 -9 -13 -10 -13 -10
0 0 9 5 21 12 28 9 9 9 12 -1 12 -7 0 -21 10 -31 23 l-18 22 -24 -23 c-14 -12
-28 -19 -31 -15 -4 3 -7 -3 -7 -15 0 -12 6 -22 13 -22 8 0 8 -3 -2 -9 -19 -12
-6 -43 16 -39 12 2 17 -3 15 -14 -2 -12 4 -18 18 -18 27 0 26 -24 -2 -42 -21
-14 -23 -13 -38 15 -18 37 -46 51 -35 18 4 -15 2 -21 -8 -21 -10 0 -14 7 -10
23 l5 22 -20 -22 c-11 -13 -25 -23 -31 -23 -13 0 -31 -32 -31 -55 0 -9 4 -14
9 -11 5 3 14 -1 21 -9 10 -12 8 -16 -15 -25 -14 -5 -31 -10 -36 -10 -6 0 -9
-15 -7 -32 2 -26 -1 -32 -14 -30 -21 3 -36 -23 -36 -63 0 -16 -5 -31 -11 -33
-26 -9 -8 -31 32 -40 23 -6 52 -14 64 -17 16 -5 23 -2 28 14 7 24 27 27 44 8
20 -25 -20 -48 -88 -50 -51 -1 -61 -4 -61 -19 0 -10 -5 -18 -10 -18 -6 0 -8
-10 -4 -24 3 -13 1 -27 -5 -30 -17 -11 -14 -66 4 -66 8 0 15 -5 15 -11 0 -20
32 -37 52 -28 10 5 27 14 38 19 11 6 28 10 39 10 20 0 51 39 51 65 0 8 9 15
19 15 15 0 21 -8 23 -32 3 -32 4 -33 63 -41 45 -5 70 -3 99 8 28 12 42 13 52
4 7 -6 17 -8 22 -5 5 3 20 -9 33 -26 37 -49 67 -78 82 -78 14 0 77 -66 77 -81
0 -6 -6 -9 -12 -8 -27 3 -38 -2 -38 -16 0 -8 4 -15 10 -15 5 0 7 -7 4 -15 -4
-8 -1 -15 5 -15 28 0 7 -20 -31 -30 -24 -6 -58 -18 -76 -26 -18 -9 -38 -14
-45 -11 -7 2 16 17 51 32 65 31 73 39 46 49 -19 7 -54 -13 -98 -56 -17 -15
-37 -28 -45 -29 -9 -1 -108 0 -221 0 -172 1 -211 4 -242 19 -21 9 -38 20 -38
24 0 16 -34 38 -58 38 l-27 0 30 -26 c16 -14 42 -28 57 -31 49 -10 30 -23 -32
-23 -59 0 -60 1 -61 28 -3 111 4 201 22 287 25 126 80 313 99 340 4 6 10 26
14 47 4 20 13 39 21 42 8 3 15 14 15 25 0 11 4 22 9 25 5 3 21 29 35 58 48 94
57 109 72 115 8 3 14 11 14 18 0 6 9 20 20 30 11 10 20 22 20 27 0 5 35 43 78
84 100 97 109 104 127 104 8 0 15 6 15 13 0 7 18 20 40 30 36 15 39 19 28 37
-15 23 -14 23 -53 1z m465 -91 c0 -5 -7 -10 -16 -10 -8 0 -12 5 -9 10 3 6 10
10 16 10 5 0 9 -4 9 -10z m80 -40 c0 -5 -4 -10 -10 -10 -5 0 -10 5 -10 10 0 6
5 10 10 10 6 0 10 -4 10 -10z m-390 -43 c35 -3 72 -26 64 -39 -4 -5 0 -14 7
-20 11 -7 9 -9 -6 -7 -48 4 -54 -1 -68 -48 -9 -29 -21 -49 -31 -51 -9 -2 -16
2 -16 8 0 7 7 10 15 6 8 -3 15 -2 15 3 0 11 -61 57 -72 54 -4 -2 -8 -1 -8 2 0
7 78 43 110 50 24 5 27 9 17 20 -9 9 -14 10 -19 1 -4 -6 -8 -7 -8 -3 0 5 -13
-1 -30 -13 -16 -12 -30 -17 -30 -11 0 5 4 12 8 15 5 3 7 20 4 38 -4 30 -3 31
10 15 7 -10 25 -19 38 -20z m245 3 c3 -5 1 -10 -4 -10 -6 0 -11 5 -11 10 0 6
2 10 4 10 3 0 8 -4 11 -10z m153 -46 c-2 -11 -11 -19 -20 -19 -9 0 -20 -4 -24
-8 -4 -4 1 -7 12 -7 15 0 16 -2 5 -9 -16 -10 -6 -31 15 -31 8 0 14 -4 14 -10
0 -5 -5 -10 -11 -10 -6 0 -22 -9 -36 -20 -14 -11 -21 -20 -14 -20 6 0 11 -5
11 -12 0 -6 -9 -3 -20 7 -11 10 -20 24 -20 32 0 7 -7 13 -15 13 -8 0 -20 9
-27 19 -9 15 -15 17 -25 9 -20 -16 -17 8 4 32 17 20 70 29 58 10 -3 -6 1 -7
10 -4 9 4 14 13 11 21 -3 8 -1 11 5 8 5 -4 21 -4 34 -1 18 5 23 11 18 24 -5
13 -3 14 6 6 7 -7 11 -20 9 -30z m-543 -14 c3 -5 1 -10 -4 -10 -6 0 -11 5 -11
10 0 6 2 10 4 10 3 0 8 -4 11 -10z m35 -24 c0 -3 -4 -8 -10 -11 -5 -3 -10 -1
-10 4 0 6 5 11 10 11 6 0 10 -2 10 -4z m800 -39 c0 -5 -4 -5 -10 -2 -5 3 -10
14 -10 23 0 15 2 15 10 2 5 -8 10 -19 10 -23z m-900 2 c-7 -11 -14 -19 -16
-16 -7 7 7 37 17 37 6 0 5 -9 -1 -21z m60 6 c-7 -9 -15 -13 -19 -10 -3 3 1 10
9 15 21 14 24 12 10 -5z m80 -5 c0 -5 -4 -10 -10 -10 -5 0 -10 5 -10 10 0 6 5
10 10 10 6 0 10 -4 10 -10z m90 -21 c0 -5 -4 -9 -10 -9 -5 0 -10 7 -10 16 0 8
5 12 10 9 6 -3 10 -10 10 -16z m70 7 c0 -2 -7 -6 -15 -10 -8 -3 -15 -1 -15 4
0 6 7 10 15 10 8 0 15 -2 15 -4z m583 -55 c9 -11 9 -13 0 -8 -6 4 -14 3 -18
-3 -10 -17 -82 -12 -89 6 -3 8 -2 13 3 10 5 -3 15 1 22 10 8 10 21 13 38 9 22
-6 23 -5 10 11 -9 11 -9 15 -1 10 7 -4 13 -2 13 6 1 7 4 2 6 -12 3 -14 10 -31
16 -39z m-422 7 c-22 -30 -29 -48 -25 -67 l6 -26 -21 25 c-21 26 -26 41 -13
39 18 -3 26 2 13 10 -10 7 -8 14 10 35 12 14 31 26 42 26 17 0 15 -5 -12 -42z
m439 27 c7 -9 8 -15 2 -15 -5 0 -12 7 -16 15 -3 8 -4 15 -2 15 2 0 9 -7 16
-15z m-1005 -5 c3 -5 1 -10 -4 -10 -6 0 -11 5 -11 10 0 6 2 10 4 10 3 0 8 -4
11 -10z m808 -16 c-5 -14 -3 -15 17 -4 32 17 42 1 34 -57 -8 -62 -13 -71 -44
-76 -14 -3 -38 -10 -53 -16 -34 -13 -40 -14 -33 -3 3 5 -10 8 -29 8 -19 -1
-34 1 -33 4 1 3 -4 15 -11 28 -11 21 -10 22 12 17 17 -5 26 -2 31 10 4 11 12
15 22 11 11 -4 15 -2 11 8 -3 8 -1 17 6 19 7 3 -8 4 -33 3 -29 0 -47 -6 -52
-16 -5 -12 -7 -11 -7 3 -1 11 8 21 18 24 12 3 17 11 14 19 -3 8 0 14 6 14 6 0
11 -5 11 -11 0 -8 4 -8 15 1 8 6 19 9 24 6 5 -4 25 0 43 8 18 8 34 15 35 15 1
1 0 -6 -4 -15z m-331 -52 c-11 -17 -18 -20 -21 -11 -2 7 1 15 8 17 6 2 11 13
11 25 0 17 2 19 9 8 6 -9 4 -23 -7 -39z m-453 -11 c-13 -4 -15 -2 -24 29 l-8
25 21 -25 c11 -14 16 -27 11 -29z m83 27 c-7 -7 -12 -8 -12 -2 0 14 12 26 19
19 2 -3 -1 -11 -7 -17z m492 -3 c-4 -8 -10 -15 -15 -15 -4 0 -6 7 -3 15 4 8
10 15 15 15 4 0 6 -7 3 -15z m326 -27 c0 -11 -7 -10 -31 2 -28 16 -23 32 6 18
14 -6 25 -15 25 -20z m-755 -8 c-5 -8 -11 -8 -17 -2 -6 6 -7 16 -3 22 5 8 11
8 17 2 6 -6 7 -16 3 -22z m232 8 c-3 -8 -6 -5 -6 6 -1 11 2 17 5 13 3 -3 4
-12 1 -19z m-127 -38 c1 -8 2 -24 1 -35 -1 -16 -3 -17 -11 -5 -5 8 -11 12 -14
9 -10 -10 -15 -79 -6 -79 6 0 10 -7 10 -15 0 -18 -5 -18 -30 -5 -16 8 -18 8
-14 -5 4 -8 1 -15 -5 -15 -6 0 -11 -9 -11 -20 0 -17 -4 -18 -25 -10 -18 7 -24
6 -22 -3 1 -6 -7 -13 -18 -15 -14 -2 -26 7 -39 33 -11 19 -22 35 -26 35 -12 0
-43 -78 -37 -94 4 -10 1 -16 -9 -16 -9 0 -14 6 -11 13 2 6 -3 20 -12 30 -8 10
-11 18 -6 17 22 -5 33 1 38 21 4 15 0 23 -14 26 -29 8 -23 23 9 19 15 -2 20
-1 11 1 -23 6 -12 50 13 56 17 5 19 2 15 -19 -3 -16 0 -24 9 -24 8 0 14 7 14
15 0 19 36 20 43 1 3 -8 2 -16 -3 -18 -4 -2 -2 -9 6 -16 12 -11 14 -10 14 7 0
21 22 33 44 25 8 -3 17 -1 21 5 6 11 -11 15 -52 11 -15 -1 -23 4 -23 14 0 15
17 31 34 31 5 0 12 9 17 20 6 15 8 10 9 -20 1 -22 4 -33 7 -25 4 8 16 23 27
33 12 10 22 23 22 28 3 21 4 23 13 14 5 -6 10 -17 11 -25z m410 20 c0 -5 -4
-10 -10 -10 -5 0 -10 5 -10 10 0 6 5 10 10 10 6 0 10 -4 10 -10z m-465 -10 c3
-5 1 -10 -4 -10 -6 0 -11 5 -11 10 0 6 2 10 4 10 3 0 8 -4 11 -10z m807 -7
c34 -37 68 -57 53 -33 -3 6 2 10 11 10 33 0 -26 -50 -60 -51 -17 0 -25 -3 -18
-6 19 -8 14 -23 -8 -23 -11 0 -20 -5 -20 -11 0 -6 -9 -8 -22 -3 -23 7 -23 6
-4 -14 25 -29 16 -52 -10 -25 -10 12 -28 23 -39 25 -18 4 -18 6 5 15 38 16 55
39 35 47 -9 3 -14 10 -10 15 3 5 1 12 -4 15 -5 4 -12 -2 -14 -11 -3 -10 -5 -3
-6 16 -1 30 1 33 24 29 17 -4 25 -1 25 8 0 20 43 17 62 -3z m-387 -10 c13 -31
12 -51 -2 -46 -14 6 -17 19 -5 26 4 2 2 3 -4 1 -13 -3 -34 15 -34 28 0 16 38
8 45 -9z m243 -50 c2 -20 5 -40 8 -45 9 -14 -27 -9 -42 6 -20 21 -17 43 8 60
12 9 23 16 23 16 1 0 2 -16 3 -37z m-508 7 c0 -5 -5 -10 -11 -10 -5 0 -7 5 -4
10 3 6 8 10 11 10 2 0 4 -4 4 -10z m340 -14 c0 -3 -4 -8 -10 -11 -5 -3 -10 -1
-10 4 0 6 5 11 10 11 6 0 10 -2 10 -4z m50 -44 c0 -5 -14 -9 -30 -10 -17 0
-28 4 -25 9 8 11 55 12 55 1z m367 -4 c0 -7 3 -24 8 -38 6 -20 5 -22 -5 -13
-15 14 -40 6 -40 -12 0 -7 -11 -15 -24 -17 -21 -4 -24 -1 -22 22 2 28 20 52
46 63 25 9 37 8 37 -5z m-572 -38 c3 -5 1 -10 -4 -10 -6 0 -11 5 -11 10 0 6 2
10 4 10 3 0 8 -4 11 -10z m363 -26 c-1 -10 -7 -18 -12 -18 -11 -1 -17 34 -9
47 8 14 25 -9 21 -29z m-541 11 c8 -22 -6 -33 -17 -15 -13 20 -12 30 0 30 6 0
13 -7 17 -15z m-469 -30 c-3 -3 -9 2 -12 12 -6 14 -5 15 5 6 7 -7 10 -15 7
-18z m872 15 c0 -5 -5 -10 -11 -10 -5 0 -7 5 -4 10 3 6 8 10 11 10 2 0 4 -4 4
-10z m-703 -20 c-3 -10 0 -21 7 -23 14 -5 7 -13 -21 -21 -20 -7 -23 -4 -23 22
0 32 7 42 28 42 9 0 13 -7 9 -20z m902 9 c-11 -6 -10 -9 4 -15 28 -10 19 -20
-18 -19 -26 1 -34 -2 -31 -12 3 -7 1 -13 -5 -13 -5 0 -9 -6 -7 -12 2 -7 -2
-14 -7 -15 -6 -2 -10 2 -9 7 1 6 2 21 3 34 1 33 24 54 57 54 18 0 22 -3 13 -9z
m153 -21 c-7 -7 -12 -8 -12 -2 0 14 12 26 19 19 2 -3 -1 -11 -7 -17z m-754 -6
c3 -9 -2 -13 -14 -10 -9 1 -19 9 -22 16 -3 9 2 13 14 10 9 -1 19 -9 22 -16z
m147 -19 c6 -34 8 -36 20 -20 14 20 39 13 64 -16 9 -12 8 -16 -6 -21 -15 -6
-15 -8 -3 -16 12 -8 11 -10 -6 -10 -12 0 -27 -7 -34 -15 -12 -15 0 -22 14 -8
4 4 15 8 24 8 10 0 16 7 16 17 -1 9 11 31 26 48 23 25 29 28 34 15 3 -9 2 -14
-3 -11 -11 7 -36 -22 -27 -31 3 -3 6 -1 6 6 0 7 5 9 10 6 13 -8 13 -48 -1 -62
-6 -6 -19 -9 -28 -6 -14 6 -14 4 2 -14 9 -11 17 -28 17 -39 0 -11 -3 -15 -8
-8 -7 11 -46 34 -57 34 -4 0 -5 -7 -1 -15 9 -24 -1 -17 -30 21 l-28 36 25 19
c13 11 18 19 9 17 -8 -1 -26 4 -40 12 -22 12 -24 12 -13 -2 7 -8 10 -18 6 -21
-12 -13 -23 -7 -23 13 0 15 -6 19 -27 18 -16 -2 -33 -7 -39 -12 -12 -12 -7
-46 8 -46 5 0 8 -10 6 -22 -2 -18 -9 -22 -27 -20 -19 2 -22 -2 -18 -18 3 -11
1 -20 -5 -20 -5 0 -12 9 -15 20 -4 14 -19 24 -47 31 -30 7 -42 16 -43 30 -1
10 5 19 13 19 9 0 14 11 14 36 0 31 3 35 20 29 11 -4 20 -2 20 4 0 6 7 8 16 4
8 -3 13 -12 10 -19 -8 -22 0 -17 33 19 19 20 31 26 31 17 0 -10 5 -7 16 8 8
12 26 22 38 22 19 0 25 -7 31 -37z m45 22 c0 -8 -4 -15 -9 -15 -13 0 -22 16
-14 24 11 11 23 6 23 -9z m535 -37 c0 -33 -5 -44 -19 -46 -29 -6 -37 10 -25
51 6 24 16 37 27 37 13 0 17 -9 17 -42z m-235 11 c0 -5 -4 -9 -10 -9 -5 0 -10
7 -10 16 0 8 5 12 10 9 6 -3 10 -10 10 -16z m-1073 -5 c-3 -3 -12 -4 -19 -1
-8 3 -5 6 6 6 11 1 17 -2 13 -5z m1164 -17 c-10 -9 -11 -8 -5 6 3 10 9 15 12
12 3 -3 0 -11 -7 -18z m224 5 c-1 -23 -14 -42 -28 -42 -8 0 -8 3 1 12 7 7 12
20 12 30 0 10 4 18 8 18 5 0 8 -8 7 -18z m-315 -28 c0 -8 -4 -12 -10 -9 -5 3
-10 13 -10 21 0 8 5 12 10 9 6 -3 10 -13 10 -21z m97 -16 c-3 -8 -6 -5 -6 6
-1 11 2 17 5 13 3 -3 4 -12 1 -19z m-444 -47 c7 -1 0 -39 -8 -49 -2 -2 -17 6
-34 19 -44 33 -33 41 42 30z m254 -23 c-3 -8 -6 -5 -6 6 -1 11 2 17 5 13 3 -3
4 -12 1 -19z m-933 -39 c-5 -8 3 -10 25 -7 35 5 39 1 14 -18 -24 -18 -67 -19
-56 -1 4 6 -5 4 -21 -6 -15 -10 -30 -16 -33 -13 -9 9 8 26 40 40 41 18 39 18
31 5z m406 -9 c0 -5 -2 -10 -4 -10 -3 0 -8 5 -11 10 -3 6 -1 10 4 10 6 0 11
-4 11 -10z m-153 -26 c-3 -3 -12 -4 -19 -1 -8 3 -5 6 6 6 11 1 17 -2 13 -5z
m490 0 c-3 -3 -12 -4 -19 -1 -8 3 -5 6 6 6 11 1 17 -2 13 -5z m78 -4 c3 -5 1
-10 -4 -10 -6 0 -11 5 -11 10 0 6 2 10 4 10 3 0 8 -4 11 -10z m-375 -42 c1
-13 3 -40 6 -60 7 -47 -12 -52 -27 -8 -6 17 -15 30 -20 30 -15 0 -10 22 9 41
23 24 32 23 32 -3z m355 1 c-10 -15 -25 -10 -19 6 4 8 10 12 15 9 5 -3 7 -10
4 -15z m-310 -9 c3 -5 12 -7 20 -3 11 4 13 1 8 -12 -4 -11 0 -22 9 -29 8 -6
18 -29 21 -51 4 -22 4 -34 1 -27 -3 6 -11 12 -18 12 -15 0 -66 78 -66 102 0
19 15 24 25 8z m695 -45 c0 -19 5 -46 11 -62 5 -15 13 -44 15 -65 5 -30 3 -38
-10 -38 -11 0 -16 9 -16 26 0 20 -4 25 -22 22 -13 -2 -25 -13 -30 -28 -4 -14
-5 20 -2 75 3 57 9 102 16 106 21 13 38 -3 38 -36z m-328 -40 c-11 -67 -42
-73 -42 -9 0 33 5 51 18 60 14 10 18 10 23 -4 4 -9 4 -30 1 -47z m-66 -13 c3
-32 -1 -66 -11 -88 -8 -19 -14 -38 -12 -42 2 -8 -7 -12 -24 -12 -12 0 -10 15
12 133 7 37 17 66 22 64 5 -1 11 -26 13 -55z m-74 -71 c-6 -14 -13 -35 -16
-45 -4 -13 -10 -16 -16 -10 -11 11 4 109 23 153 11 25 12 23 15 -23 2 -27 -1
-61 -6 -75z m-94 63 c7 -14 17 -22 22 -19 7 4 7 13 0 26 -9 16 -7 19 10 19 16
0 20 -6 20 -35 0 -21 -6 -37 -16 -43 -9 -5 -15 -12 -15 -15 3 -25 -1 -37 -14
-37 -18 0 -40 42 -49 93 -6 32 -4 37 12 37 10 0 24 -11 30 -26z m736 1 c3 -10
-1 -15 -14 -15 -20 0 -33 13 -23 24 11 11 31 6 37 -9z m-107 -9 c-5 -16 -24
-18 -30 -4 -3 9 3 14 14 14 11 0 18 -5 16 -10z m81 -20 c7 -4 16 -5 21 -1 11
6 25 -12 26 -38 2 -24 -2 -26 -81 -29 l-69 -3 -3 33 c-3 29 -1 32 22 32 14 0
26 4 26 8 0 9 42 8 58 -2z m276 -77 c-3 -5 -10 -7 -15 -3 -5 3 -7 10 -3 15 3
5 10 7 15 3 5 -3 7 -10 3 -15z m-1026 -24 c-3 -3 -9 2 -12 12 -6 14 -5 15 5 6
7 -7 10 -15 7 -18z m742 -5 c0 -13 7 -20 19 -20 11 0 21 -6 24 -12 3 -10 7
-10 20 1 12 9 14 17 8 25 -7 8 -3 12 12 13 17 2 19 0 7 -7 -11 -7 -11 -10 -2
-10 7 0 1 -12 -14 -27 -24 -24 -27 -25 -36 -8 -8 14 -12 15 -19 4 -6 -10 -11
-11 -16 -3 -5 7 -16 8 -28 4 -18 -7 -19 -8 -3 -15 24 -10 15 -21 -24 -29 -30
-6 -31 -8 -15 -20 16 -13 16 -14 -5 -20 -13 -3 -40 -6 -61 -6 -21 0 -50 -6
-65 -14 -33 -17 -77 -4 -68 19 3 9 1 15 -7 14 -26 -3 -36 2 -31 15 5 12 -3 14
-40 11 -37 -4 -46 -2 -46 11 0 8 -4 13 -9 10 -17 -11 -43 5 -31 18 7 9 5 12
-8 12 -9 -1 -18 4 -19 9 -2 6 16 10 40 10 23 0 45 4 49 10 4 5 80 10 173 11
91 1 168 4 172 8 12 12 23 6 23 -14z m167 4 c-3 -3 -12 -4 -19 -1 -8 3 -5 6 6
6 11 1 17 -2 13 -5z m107 -20 c3 -8 2 -12 -4 -9 -6 3 -10 10 -10 16 0 14 7 11
14 -7z m-25 -35 c-19 -12 -49 -11 -49 1 0 6 9 10 20 10 14 0 18 5 13 18 -6 15
-5 15 12 -1 15 -16 16 -20 4 -28z m-79 16 c-11 -13 -10 -14 4 -9 11 4 16 1 16
-10 0 -9 -6 -16 -14 -16 -8 0 -17 -6 -20 -12 -5 -10 -7 -10 -12 0 -3 6 -12 12
-19 12 -11 0 -25 20 -25 35 0 2 15 6 33 8 17 2 36 5 41 5 5 1 3 -5 -4 -13z
m98 -36 c-2 -6 -7 -10 -11 -10 -4 1 -15 1 -24 2 -15 0 -15 2 2 9 28 12 37 12
33 -1z m-138 -34 c0 -8 -7 -15 -16 -15 -14 0 -14 3 -4 15 7 8 14 15 16 15 2 0
4 -7 4 -15z m93 8 c-7 -2 -19 -2 -25 0 -7 3 -2 5 12 5 14 0 19 -2 13 -5z
m-1003 -18 c0 -5 5 -3 10 5 9 13 10 13 10 0 0 -9 -5 -21 -11 -27 -9 -9 -7 -10
10 -6 15 4 21 1 21 -11 0 -9 -5 -16 -11 -16 -8 0 -8 -4 0 -14 6 -8 10 -19 9
-26 -2 -7 3 -15 10 -17 6 -3 12 2 12 11 0 8 6 13 13 10 12 -4 14 -30 7 -74 -1
-8 -5 -4 -9 10 -6 20 -14 25 -51 27 -34 2 -48 -1 -59 -14 -9 -13 -15 -14 -18
-5 -7 19 -24 14 -21 -5 2 -13 -4 -19 -22 -20 -14 -1 -18 0 -7 3 16 5 25 24 10
24 -14 -1 -40 -25 -39 -35 1 -5 -15 -11 -35 -13 -25 -2 -45 -13 -65 -33 -16
-17 -22 -27 -13 -24 24 9 30 -17 12 -54 -11 -22 -21 -30 -33 -26 -17 5 -34
-18 -44 -60 -3 -13 -5 -9 -4 10 0 53 -2 65 -12 65 -5 0 -10 -22 -10 -50 0 -27
-4 -50 -9 -50 -12 0 -21 93 -10 107 14 16 -13 23 -29 6 -7 -7 -10 -17 -7 -23
3 -5 -1 -10 -9 -10 -9 0 -16 9 -16 20 0 12 7 20 16 20 10 0 14 7 12 18 -2 9
-10 16 -17 14 -8 -2 -11 3 -8 12 4 9 2 18 -3 21 -5 3 -7 13 -4 23 5 14 4 15
-5 2 -10 -13 -12 -13 -21 0 -18 27 -11 37 45 66 30 16 55 32 55 36 0 4 6 5 14
2 8 -3 17 -1 21 5 3 6 21 11 40 11 19 0 37 5 40 11 4 5 12 8 18 6 7 -2 21 3
31 12 14 12 20 13 23 4 3 -7 12 -13 21 -13 13 0 13 2 -3 13 -17 13 -17 15 6
30 13 10 34 17 46 17 13 0 23 3 23 8 0 4 16 7 35 7 19 0 35 -4 35 -10z m454
-22 c-3 -21 -11 -42 -17 -48 -7 -7 -8 -4 -4 7 3 10 2 20 -3 23 -16 10 -12 35
5 35 8 0 15 5 15 10 0 6 2 10 5 10 3 0 3 -17 -1 -37z m486 22 c-7 -9 -15 -13
-17 -11 -7 7 7 26 19 26 6 0 6 -6 -2 -15z m-576 -10 c-6 -16 -24 -21 -24 -7 0
11 11 22 21 22 5 0 6 -7 3 -15z m684 -33 c7 -57 8 -101 3 -97 -3 1 -7 -22 -8
-53 -1 -30 -6 -58 -11 -61 -6 -3 -12 -17 -15 -31 -3 -21 -5 -19 -6 8 0 18 -5
31 -10 28 -5 -3 -11 3 -14 14 -7 27 -21 25 -37 -5 -7 -13 -17 -22 -22 -19 -4
3 -1 12 7 20 20 20 19 23 -7 33 -26 10 -58 -11 -58 -37 0 -20 -30 -41 -58 -42
-15 0 -22 -5 -19 -12 2 -7 11 -12 21 -10 20 4 21 -12 1 -28 -13 -11 -18 -10
-30 6 -13 17 -14 18 -15 2 0 -23 -14 -23 -51 -1 -23 13 -31 15 -41 5 -9 -9 -8
-12 5 -12 9 0 17 -7 17 -15 0 -11 -7 -14 -24 -9 -13 3 -27 1 -31 -5 -3 -7 -1
-10 6 -9 6 2 14 -3 16 -9 3 -8 -4 -13 -19 -13 -23 -1 -23 -1 5 -26 29 -25 63
-25 79 0 4 6 8 7 8 2 0 -6 15 4 33 22 34 33 44 32 65 -5 17 -32 17 -33 -33
-33 -33 0 -45 -4 -45 -15 0 -17 23 -20 51 -5 13 7 19 7 19 0 0 -5 11 -10 24
-10 14 0 28 -4 31 -10 10 -16 28 -12 22 5 -7 18 9 30 17 13 4 -7 4 -3 2 10 -2
12 0 22 5 22 5 0 9 5 9 11 0 5 -4 7 -10 4 -5 -3 -10 0 -10 9 0 8 13 17 31 21
17 4 33 13 36 21 3 8 9 11 14 8 15 -9 -10 -44 -32 -44 -11 0 -17 -5 -14 -10 4
-6 1 -17 -5 -25 -10 -12 -9 -15 4 -15 9 0 16 7 16 15 0 8 6 15 14 15 15 0 11
-34 -6 -57 -5 -6 -11 -24 -14 -39 -3 -16 -9 -33 -14 -39 -5 -6 -16 -33 -25
-60 -10 -28 -23 -57 -31 -66 -8 -8 -14 -20 -14 -25 0 -5 -12 -20 -25 -33 -14
-13 -25 -29 -25 -37 0 -8 -4 -14 -8 -14 -5 0 -14 -15 -21 -34 -8 -18 -24 -41
-37 -51 -13 -10 -24 -23 -24 -29 0 -6 -12 -22 -25 -35 -14 -13 -25 -27 -25
-32 0 -5 -6 -9 -14 -9 -8 0 -17 -8 -21 -17 -10 -28 -122 -111 -200 -148 -131
-63 -214 -85 -318 -85 -119 0 -275 37 -367 88 -83 45 -190 123 -190 140 0 6
-4 12 -10 12 -12 0 -80 68 -80 81 0 5 -6 12 -14 15 -16 6 -116 164 -116 183 0
7 10 10 25 7 13 -3 27 0 30 5 8 12 25 11 25 -2 0 -5 -4 -8 -8 -5 -10 6 -38
-41 -30 -50 4 -3 9 3 12 14 4 10 17 25 31 32 13 7 25 22 27 34 2 16 9 20 31
18 18 -2 27 2 27 11 0 10 8 13 26 9 18 -3 30 0 35 11 6 9 21 14 39 13 16 -1
30 -1 30 0 0 1 3 10 6 18 5 12 2 15 -10 10 -11 -4 -16 -1 -16 10 0 9 -5 16
-11 16 -25 0 0 25 27 27 59 4 135 -9 130 -22 -6 -16 31 -27 38 -11 2 6 5 4 5
-5 1 -18 -32 -32 -46 -19 -4 4 -20 10 -35 14 -21 5 -28 3 -28 -9 0 -8 -3 -14
-7 -14 -19 3 -33 -2 -33 -12 0 -5 4 -8 9 -5 8 5 26 -23 19 -29 -11 -9 -68 -13
-63 -5 3 6 -3 10 -14 10 -12 0 -21 -5 -21 -11 0 -5 4 -7 10 -4 5 3 10 -3 10
-13 0 -13 -12 -25 -37 -35 -21 -9 -33 -17 -28 -18 20 -3 70 -9 88 -10 16 0 17
-6 11 -47 -3 -26 -13 -54 -20 -63 -8 -9 -11 -19 -7 -24 5 -4 2 -5 -4 -1 -7 4
-13 15 -14 24 0 11 -4 9 -10 -8 -12 -30 -4 -70 15 -70 8 0 17 12 20 26 9 36
20 23 11 -14 -5 -23 -11 -30 -32 -29 -24 0 -43 -17 -43 -38 0 -5 5 -3 10 5 8
12 10 11 10 -7 0 -22 9 -27 38 -24 6 1 12 -8 12 -19 0 -18 6 -21 38 -20 42 2
102 -7 110 -15 3 -3 -7 -5 -21 -5 -15 0 -27 -4 -27 -10 0 -13 57 -13 65 0 4 6
12 7 18 3 18 -11 69 -12 104 -1 41 12 64 1 38 -19 -11 -7 -15 -13 -9 -13 5 0
3 -4 -4 -8 -9 -7 -8 -13 8 -27 20 -18 20 -18 20 6 0 13 5 31 10 39 7 11 9 5 6
-22 -3 -21 0 -38 5 -38 5 0 9 8 9 18 1 16 1 16 14 0 7 -10 18 -18 25 -18 6 0
11 -7 11 -15 0 -10 10 -15 33 -15 32 1 32 1 8 14 l-23 13 22 6 c13 3 32 2 42
-4 17 -9 28 4 11 14 -5 2 -2 2 6 0 8 -2 18 2 22 9 5 8 11 4 18 -15 13 -34 20
-34 50 3 19 24 28 29 49 23 21 -5 24 -3 19 11 -6 15 7 20 51 19 6 -1 12 5 12
13 0 16 16 19 25 4 3 -5 0 -10 -7 -10 -7 0 -2 -6 12 -13 14 -7 28 -9 31 -5 3
5 10 8 15 7 23 -4 26 2 8 16 -18 14 -17 15 14 10 19 -3 32 -1 32 5 0 6 -4 8
-10 5 -5 -3 -10 -1 -10 5 0 6 -4 8 -10 5 -5 -3 -15 3 -21 13 -12 18 -49 20
-49 2 0 -5 -9 -6 -20 -3 -14 4 -20 0 -20 -10 0 -13 -10 -15 -45 -13 -30 2 -42
-1 -36 -8 6 -7 3 -16 -6 -25 -12 -11 -15 -10 -20 7 -3 11 -12 23 -20 26 -8 3
-11 1 -8 -5 4 -6 -3 -7 -19 -3 -17 4 -26 2 -26 -6 0 -8 -8 -10 -22 -7 -12 4
-29 1 -37 -6 -12 -9 -13 -9 -7 1 4 7 1 15 -8 18 -19 7 -11 24 11 24 8 0 24 11
35 25 21 27 48 33 48 11 0 -24 61 -25 88 -2 22 19 22 19 22 0 1 -18 1 -18 14
-2 7 10 25 19 40 20 14 1 26 5 26 8 0 11 -15 27 -30 33 -8 3 1 4 20 2 19 -2
39 -4 43 -4 5 -1 5 -5 2 -11 -3 -5 4 -23 16 -39 19 -26 24 -28 50 -19 16 5 29
14 29 19 0 5 7 9 15 9 8 0 15 6 15 13 0 8 3 7 10 -3 5 -8 10 -12 12 -10 18 28
27 51 19 45 -7 -3 -11 2 -11 14 0 12 5 21 11 21 5 0 7 -4 4 -10 -3 -5 -1 -10
5 -10 8 0 9 7 5 18 -7 19 -8 22 -6 40 0 6 8 12 16 12 8 0 15 5 15 10 0 6 -9
10 -20 10 -21 0 -27 15 -10 25 8 5 7 11 -1 21 -7 8 -7 14 -1 14 5 0 15 -7 22
-15 9 -11 16 -13 24 -5 5 5 19 10 31 10 20 1 20 1 1 15 -11 8 -15 15 -9 15 6
0 20 3 30 6 15 5 16 4 3 -6 -13 -10 -13 -11 3 -6 12 4 17 0 17 -12 0 -15 2
-15 10 -2 7 11 5 19 -10 29 -24 16 -26 33 -3 24 11 -4 14 -3 9 5 -4 7 -2 12 3
12 6 0 11 -5 11 -11 0 -5 5 -7 10 -4 15 10 12 23 -7 28 -10 3 -2 3 19 2 28 -2
37 1 41 16 3 11 0 19 -6 19 -19 0 -17 47 2 54 46 17 104 64 95 77 -7 12 -44
11 -44 -1 0 -5 -5 -10 -11 -10 -5 0 -7 5 -4 10 3 6 -1 10 -9 10 -9 0 -16 -6
-16 -14 0 -8 -7 -16 -15 -20 -11 -4 -15 1 -15 19 0 26 26 40 54 29 9 -3 16 -2
16 4 0 21 -49 21 -95 1 -26 -11 -50 -18 -53 -14 -4 3 -2 9 4 13 6 4 13 14 16
23 10 27 -36 14 -103 -27 -40 -25 -49 -23 -49 13 0 12 -4 23 -9 23 -4 0 -6
-11 -4 -24 3 -13 0 -34 -7 -46 -11 -20 -13 -20 -29 -6 -10 9 -22 16 -27 16 -5
0 -2 -5 6 -10 13 -9 13 -11 0 -20 -13 -8 -12 -10 3 -10 9 0 17 -5 17 -10 0
-11 -58 -9 -76 2 -14 9 -38 -7 -30 -20 3 -6 2 -13 -4 -17 -5 -3 -10 0 -10 8 0
15 -29 32 -38 22 -3 -3 0 -5 6 -5 7 0 12 -7 12 -16 0 -9 -7 -14 -17 -12 -13 2
-19 14 -21 41 -2 20 -7 37 -12 37 -6 0 -10 10 -10 23 -1 62 -13 117 -26 117
-8 0 -14 5 -14 11 0 7 10 9 26 5 17 -5 23 -3 19 4 -3 5 0 10 7 10 19 0 68 23
68 32 0 4 16 15 35 24 19 9 32 20 29 25 -3 5 1 10 8 10 55 6 95 5 104 -2 8 -6
14 -4 17 6 4 8 13 12 22 9 8 -3 15 -1 15 5 0 6 -5 11 -11 11 -15 0 9 30 25 30
6 0 20 7 31 16 17 13 18 16 5 24 -13 8 -12 10 3 10 9 0 17 4 17 9 0 5 10 11
23 14 l22 6 -22 -16 c-33 -23 -28 -32 12 -23 40 9 82 48 77 72 -3 16 23 28 45
21 7 -2 10 -12 7 -21 -3 -9 3 -3 13 14 10 17 24 29 31 27 6 -3 12 1 12 7 0 8
9 10 25 6 21 -5 29 -1 43 23 19 34 34 27 40 -17z m-718 16 c0 -4 -9 -8 -20 -8
-17 0 -19 -4 -14 -27 6 -22 4 -25 -10 -20 -10 4 -22 7 -27 7 -5 0 -9 4 -9 10
0 5 7 7 15 4 9 -4 15 0 15 10 0 10 -6 13 -15 10 -15 -6 -21 7 -9 19 10 9 74 5
74 -5z m560 -13 c-27 -29 -36 -31 -43 -11 -4 9 0 12 12 9 10 -2 23 3 30 11 8
9 16 16 19 16 3 0 -5 -11 -18 -25z m-1129 2 c-5 -5 -27 -11 -50 -14 -22 -3
-46 -12 -52 -19 -6 -8 -17 -14 -24 -14 -6 0 -20 -9 -30 -20 -10 -11 -24 -20
-32 -20 -7 0 -13 -3 -13 -7 0 -5 -12 -14 -27 -20 -22 -11 -37 -10 -87 6 -34
11 -89 27 -123 37 l-63 17 -20 -23 c-11 -12 -22 -31 -25 -41 -13 -40 -25 -16
-25 50 0 47 4 71 13 74 24 8 566 2 558 -6z m645 -22 c15 -31 9 -36 -24 -22
-38 16 -38 16 -16 32 25 19 27 19 40 -10z m19 15 c3 -5 1 -10 -4 -10 -6 0 -11
5 -11 10 0 6 2 10 4 10 3 0 8 -4 11 -10z m363 -22 c11 -14 10 -16 -7 -11 -12
3 -17 11 -14 19 3 8 6 14 7 12 1 -2 7 -11 14 -20z m-80 -5 c-10 -3 -18 -8 -18
-13 0 -5 8 -11 18 -13 15 -4 15 -5 0 -6 -9 0 -20 4 -23 9 -3 6 -11 10 -16 10
-6 0 -7 -4 -4 -10 12 -19 -19 -47 -48 -44 -15 1 -25 -1 -22 -6 3 -4 -13 -11
-35 -15 -22 -4 -40 -11 -40 -16 0 -4 -7 -6 -15 -3 -10 4 -13 2 -10 -7 3 -10
-15 -22 -59 -38 -36 -14 -63 -28 -60 -33 3 -4 -4 -8 -15 -8 -12 0 -21 -5 -21
-11 0 -5 5 -7 10 -4 6 3 10 0 11 -7 0 -10 2 -10 6 0 6 14 73 17 73 2 0 -5 -11
-10 -25 -10 -14 0 -41 -7 -60 -14 -19 -8 -35 -12 -35 -8 0 4 -7 -2 -15 -12
-14 -19 -15 -19 -15 6 0 18 7 28 23 33 l22 8 -22 4 c-26 5 -29 13 -12 30 7 7
12 22 13 35 1 16 7 23 21 23 11 1 26 4 33 8 6 5 17 5 22 2 6 -3 10 -2 10 3 0
6 6 10 13 9 43 -1 59 4 53 18 -5 14 0 17 46 20 9 0 28 10 41 22 22 19 26 19
40 5 14 -14 18 -13 42 2 14 9 24 20 21 24 -3 5 12 8 32 8 20 1 29 -1 20 -3z
m-373 -14 c11 -17 -1 -21 -15 -4 -8 9 -8 15 -2 15 6 0 14 -5 17 -11z m-25 -19
c0 -5 -5 -10 -11 -10 -5 0 -7 5 -4 10 3 6 8 10 11 10 2 0 4 -4 4 -10z m4 -61
c-9 -15 -31 -10 -38 7 -4 11 -2 15 8 11 11 -4 13 -1 10 11 -5 14 -3 14 10 -2
8 -10 13 -23 10 -27z m-316 0 c-12 -35 -15 -34 -22 4 -4 22 -1 27 14 27 17 0
18 -4 8 -31z m56 -4 c-4 -8 -10 -15 -15 -15 -4 0 -6 7 -3 15 4 8 10 15 15 15
4 0 6 -7 3 -15z m-644 -5 c0 -5 -4 -10 -8 -10 -5 0 -18 -9 -30 -20 -18 -17
-25 -19 -42 -8 -30 19 -24 36 13 41 60 7 67 7 67 -3z m1230 -19 c0 -12 -28
-22 -34 -12 -3 5 -3 11 1 15 9 9 33 7 33 -3z m-60 -15 c0 -10 -7 -12 -22 -8
-21 5 -21 6 -2 13 10 4 20 8 22 8 1 1 2 -5 2 -13z m-1355 -6 c3 -5 14 -10 23
-10 10 0 35 -9 57 -20 26 -13 32 -20 20 -20 -26 0 -125 41 -125 52 0 11 18 10
25 -2z m749 -4 c14 6 17 2 14 -17 -1 -13 -9 -25 -15 -25 -7 -1 -20 -2 -28 -3
-8 0 -15 -8 -15 -16 0 -9 7 -18 15 -21 8 -4 15 -10 15 -15 0 -15 -27 -10 -33
5 -4 11 -14 12 -40 6 -19 -4 -40 -10 -46 -14 -14 -9 -47 15 -46 34 0 10 10 15
31 14 26 -1 31 2 27 17 -4 14 5 21 43 32 28 8 52 10 55 5 3 -5 14 -6 23 -2z
m44 2 c-2 -7 5 -12 15 -10 9 2 17 -2 17 -8 0 -5 -10 -10 -23 -10 -16 0 -23 6
-24 20 -1 11 2 20 8 20 5 0 8 -6 7 -12z m282 2 c0 -5 -4 -10 -10 -10 -5 0 -10
5 -10 10 0 6 5 10 10 10 6 0 10 -4 10 -10z m-779 -10 c5 0 9 -6 9 -13 0 -7 6
-19 13 -25 17 -18 15 -74 -4 -95 -17 -18 -17 -18 -23 1 -4 11 -5 26 -4 33 4
15 -22 22 -39 11 -9 -6 -10 -17 -4 -39 9 -32 -1 -53 -26 -53 -19 0 -17 94 3
133 24 47 35 59 51 52 8 -3 19 -5 24 -5z m-115 -40 c0 -15 -5 -19 -21 -14 -26
8 -28 11 -20 23 11 19 41 12 41 -9z m-69 -30 c75 -24 83 -32 83 -81 0 -32 -7
-34 -62 -18 -35 9 -38 13 -38 44 0 31 -3 35 -25 35 -18 0 -25 -5 -25 -20 0
-13 -7 -20 -20 -20 -13 0 -20 7 -20 20 0 11 -4 20 -10 20 -5 0 -10 13 -10 29
0 33 -12 34 127 -9z m711 -13 c2 -26 -1 -37 -10 -37 -9 0 -10 -2 -1 -8 6 -4
14 -24 18 -45 7 -34 5 -37 -16 -37 -13 0 -35 -6 -50 -13 -40 -22 -122 -28
-153 -12 -15 8 -24 10 -21 6 9 -16 -59 -20 -71 -5 -14 17 -25 18 -21 2 1 -7
-4 -12 -10 -11 -7 2 -13 -3 -13 -11 0 -22 -37 -26 -56 -5 -20 22 -36 25 -28 5
3 -9 -4 -19 -18 -27 -23 -12 -23 -12 -4 10 11 11 16 21 13 21 -16 0 -76 -38
-70 -44 3 -3 -6 -6 -21 -6 -15 0 -36 -5 -47 -10 -13 -7 -19 -7 -19 -1 0 6 12
13 28 17 28 6 54 18 132 60 25 13 55 24 66 24 12 0 27 6 34 14 6 8 18 12 26 9
9 -3 14 2 15 13 0 11 3 14 6 7 6 -17 26 -17 21 -1 -9 25 36 47 83 43 69 -7
106 3 113 31 4 16 11 21 22 17 10 -4 17 2 21 16 8 33 27 20 31 -22z m848 16
c-14 -7 -26 -20 -26 -28 0 -9 -6 -12 -15 -9 -8 4 -15 10 -15 14 0 12 63 48 74
42 5 -3 -3 -11 -18 -19z m-1116 -33 c0 -5 -5 -10 -11 -10 -5 0 -7 5 -4 10 3 6
8 10 11 10 2 0 4 -4 4 -10z m1225 0 c-3 -5 -10 -10 -16 -10 -5 0 -9 5 -9 10 0
6 7 10 16 10 8 0 12 -4 9 -10z m-1702 -30 c3 -11 1 -20 -4 -20 -5 0 -9 9 -9
20 0 11 2 20 4 20 2 0 6 -9 9 -20z m317 -20 c0 -5 -8 -10 -17 -11 -11 0 -13
-3 -5 -6 20 -8 14 -39 -8 -40 -11 -1 -20 2 -20 8 0 5 5 9 11 9 6 0 9 6 6 14
-5 14 10 36 25 36 4 0 8 -4 8 -10z m-56 -15 c-4 -8 -10 -15 -16 -15 -14 0 -34
-23 -42 -48 -4 -12 -21 -29 -37 -37 -37 -20 -38 -5 0 23 21 15 28 27 24 42 -3
12 -2 20 3 19 16 -2 54 13 54 22 0 5 4 9 10 9 5 0 7 -7 4 -15z m523 -17 c-3
-8 -6 -5 -6 6 -1 11 2 17 5 13 3 -3 4 -12 1 -19z m-742 -18 c-3 -5 -10 -10
-16 -10 -5 0 -9 5 -9 10 0 6 7 10 16 10 8 0 12 -4 9 -10z m-58 -16 c-3 -3 -12
-4 -19 -1 -8 3 -5 6 6 6 11 1 17 -2 13 -5z m103 -66 c0 -81 -14 -83 -27 -3 -7
42 -12 50 -28 47 -16 -2 -15 0 5 12 45 27 50 22 50 -56z m597 -10 c-3 -7 -5
-2 -5 12 0 14 2 19 5 13 2 -7 2 -19 0 -25z m-43 16 c9 -3 16 -12 16 -20 0 -15
-15 -19 -23 -6 -2 4 -3 2 -1 -4 4 -19 -18 -35 -32 -24 -7 7 -20 7 -37 1 -23
-9 -25 -8 -20 7 10 25 27 40 54 45 13 2 25 5 26 6 1 0 8 -2 17 -5z m153 -69
c-12 -51 -21 -60 -44 -45 -14 9 -14 10 -1 6 11 -3 20 5 28 25 11 25 10 32 -4
48 -13 14 -14 20 -4 23 25 9 35 -14 25 -57z m597 49 c5 -13 16 -15 51 -12 38
5 45 3 45 -12 0 -13 -11 -19 -46 -25 -26 -3 -53 -9 -61 -12 -12 -5 -14 -1 -8
17 4 14 3 25 -5 30 -7 4 -9 13 -6 19 10 16 23 14 30 -5z m-859 -13 c-3 -6 -14
-11 -23 -11 -13 0 -13 2 4 14 21 15 30 14 19 -3z m-232 -15 c9 -24 -21 -49
-65 -52 -24 -1 -36 1 -28 4 18 8 23 42 6 43 -6 0 2 6 18 13 32 14 62 11 69 -8z
m434 -9 c-15 -12 -27 -28 -27 -35 0 -6 -7 -9 -15 -6 -8 4 -15 10 -15 16 0 5 6
6 13 2 8 -5 8 -2 -2 9 -12 15 -11 17 8 17 12 0 19 5 16 10 -4 6 5 10 21 10
l27 0 -26 -23z m609 6 c-4 -9 -2 -20 5 -23 8 -5 8 -10 1 -14 -13 -8 -36 30
-27 44 10 17 28 11 21 -7z m-29 -34 c-1 -20 -23 -33 -38 -23 -5 3 -9 -2 -9
-10 0 -9 -4 -16 -10 -16 -14 0 -13 4 11 44 21 36 49 40 46 5z m-1117 11 c0 -5
-2 -10 -4 -10 -3 0 -8 5 -11 10 -3 6 -1 10 4 10 6 0 11 -4 11 -10z m496 -40
c22 0 16 -17 -7 -23 -15 -4 -19 -2 -15 9 3 8 -1 17 -9 20 -8 4 -15 14 -14 23
0 12 3 11 16 -6 8 -13 22 -23 29 -23z m-512 15 c3 -8 4 -15 2 -15 -3 0 -11 -3
-20 -6 -9 -3 -16 -1 -16 6 0 6 5 8 10 5 6 -3 10 -2 10 4 0 5 -6 12 -12 14 -8
4 -7 6 3 6 9 1 19 -6 23 -14z m446 0 c0 -8 -7 -15 -15 -15 -11 0 -14 -7 -9
-25 4 -15 2 -25 -4 -25 -20 0 -17 45 3 62 25 21 25 21 25 3z m-180 1 c0 -3 -4
-8 -10 -11 -5 -3 -10 -1 -10 4 0 6 5 11 10 11 6 0 10 -2 10 -4z m30 -6 c0 -5
-2 -10 -4 -10 -3 0 -8 5 -11 10 -3 6 -1 10 4 10 6 0 11 -4 11 -10z m-425 -20
c-3 -5 -10 -10 -16 -10 -5 0 -9 5 -9 10 0 6 7 10 16 10 8 0 12 -4 9 -10z m585
-21 c0 -6 -4 -7 -10 -4 -5 3 -10 11 -10 16 0 6 5 7 10 4 6 -3 10 -11 10 -16z
m560 9 c0 -3 8 -9 18 -11 9 -3 1 -4 -18 -3 -19 2 -43 -2 -54 -7 -12 -6 -22 -5
-30 4 -8 9 -7 11 7 6 11 -4 17 -1 17 8 0 10 10 14 30 12 16 -1 30 -5 30 -9z
m-720 -2 c0 -3 -4 -8 -10 -11 -5 -3 -10 -1 -10 4 0 6 5 11 10 11 6 0 10 -2 10
-4z m310 -27 c0 -15 -4 -31 -10 -34 -5 -3 -10 3 -10 14 0 10 -2 26 -5 34 -4 8
0 14 10 14 10 0 15 -10 15 -28z m669 22 c9 -6 10 -11 2 -15 -13 -8 -31 1 -31
15 0 11 11 11 29 0z m-877 -68 c-8 -40 -18 -25 -13 20 3 30 6 37 11 23 3 -11
5 -30 2 -43z m928 36 c0 -4 -7 -6 -15 -3 -8 4 -15 10 -15 15 0 4 7 6 15 3 8
-4 15 -10 15 -15z m-811 -38 c-13 -4 -15 -2 -23 29 l-7 25 20 -25 c11 -14 15
-27 10 -29z m-599 35 c0 -3 -4 -8 -10 -11 -5 -3 -10 -1 -10 4 0 6 5 11 10 11
6 0 10 -2 10 -4z m434 -8 c-3 -4 -16 -7 -29 -6 -13 1 -21 6 -19 10 3 4 16 7
29 6 13 -1 21 -6 19 -10z m796 2 c-8 -5 -22 -10 -30 -10 -13 0 -13 1 0 10 8 5
22 10 30 10 13 0 13 -1 0 -10z m-666 -15 c6 -18 -5 -20 -22 -3 -6 6 -15 8 -19
4 -4 -4 -1 -11 7 -16 8 -5 12 -12 9 -15 -10 -9 -39 6 -39 20 0 25 55 34 64 10z
m79 8 c-7 -2 -19 -2 -25 0 -7 3 -2 5 12 5 14 0 19 -2 13 -5z m642 -38 c-22
-19 -34 -35 -26 -35 8 0 12 -2 9 -5 -3 -3 -18 1 -34 10 -26 14 -27 15 -6 15
12 0 22 3 22 8 0 9 50 41 65 42 5 0 -8 -16 -30 -35z m-625 21 c0 -2 -7 -6 -15
-10 -8 -3 -15 -1 -15 4 0 6 7 10 15 10 8 0 15 -2 15 -4z m467 -9 c7 0 10 -4 7
-9 -3 -5 -18 -8 -32 -7 -15 2 -32 0 -39 -4 -17 -10 -28 13 -12 24 8 5 25 6 39
3 14 -4 30 -7 37 -7z m-767 -6 c0 -5 -10 -11 -22 -13 -27 -4 -38 -38 -13 -38
12 0 15 -5 9 -22 -4 -13 -11 -26 -16 -29 -5 -3 -2 -12 7 -19 11 -9 15 -9 15
-1 0 7 5 9 11 5 8 -5 6 -10 -5 -16 -9 -5 -21 -6 -26 -3 -5 3 -19 1 -31 -6 -21
-11 -21 -10 -6 11 10 14 12 30 8 48 -5 15 -4 39 1 54 8 24 17 29 61 37 4 0 7
-3 7 -8z m-15 -31 c3 -5 1 -10 -4 -10 -6 0 -11 5 -11 10 0 6 2 10 4 10 3 0 8
-4 11 -10z m35 -22 c-1 -28 -2 -30 -11 -15 -6 10 -8 25 -5 33 9 24 16 16 16
-18z m125 22 c-3 -5 -11 -10 -16 -10 -6 0 -7 5 -4 10 3 6 11 10 16 10 6 0 7
-4 4 -10z m533 -2 c-6 -18 -22 -20 -43 -3 -19 14 -18 14 13 15 22 0 32 -4 30
-12z m-398 -8 c0 -5 -4 -10 -10 -10 -5 0 -10 5 -10 10 0 6 5 10 10 10 6 0 10
-4 10 -10z m250 -15 c-7 -9 -15 -13 -19 -10 -3 3 1 10 9 15 21 14 24 12 10 -5z
m-410 -4 c0 -6 -4 -12 -10 -16 -5 -3 -7 -12 -4 -19 3 -7 -3 -19 -12 -27 -16
-13 -16 -12 -5 9 6 12 7 22 2 22 -5 0 -11 -4 -13 -9 -5 -13 -68 -25 -68 -12 0
6 6 10 13 9 6 -2 12 4 11 13 -1 11 8 16 29 16 17 0 33 5 35 11 4 14 22 16 22
3z m110 -16 c-7 -8 -20 -15 -29 -15 -13 1 -13 3 3 15 26 19 42 19 26 0z m580
5 c0 -5 -2 -10 -4 -10 -3 0 -8 5 -11 10 -3 6 -1 10 4 10 6 0 11 -4 11 -10z
m-640 -10 c0 -5 -4 -10 -10 -10 -5 0 -10 5 -10 10 0 6 5 10 10 10 6 0 10 -4
10 -10z m330 0 c0 -5 -9 -10 -21 -10 -14 0 -19 -5 -16 -14 7 -18 -14 -37 -45
-41 -13 -2 -36 -8 -53 -13 -16 -6 -58 -18 -93 -27 -73 -18 -113 -41 -106 -60
4 -10 0 -12 -15 -8 -12 3 -21 12 -21 19 0 16 57 54 80 54 9 0 21 5 28 12 12
12 34 18 87 22 46 3 78 17 100 41 28 31 75 47 75 25z m267 -7 c2 -6 -13 -18
-34 -28 -21 -10 -41 -23 -45 -29 -5 -8 -8 -7 -8 2 0 6 -8 12 -17 12 -14 0 -15
2 -4 13 11 9 14 9 18 0 3 -9 11 -8 31 5 14 9 29 16 32 15 3 -1 4 5 2 14 -4 17
20 13 25 -4z m-177 -7 c0 -3 -4 -8 -10 -11 -5 -3 -10 -1 -10 4 0 6 5 11 10 11
6 0 10 -2 10 -4z m-320 -36 c-19 -13 -30 -13 -30 0 0 6 10 10 23 10 18 0 19
-2 7 -10z m-260 -26 c0 -8 -4 -12 -10 -9 -5 3 -10 10 -10 16 0 5 5 9 10 9 6 0
10 -7 10 -16z m-50 -4 c0 -5 -4 -10 -10 -10 -5 0 -10 5 -10 10 0 6 5 10 10 10
6 0 10 -4 10 -10z m-90 -10 c0 -5 -2 -10 -4 -10 -3 0 -8 5 -11 10 -3 6 -1 10
4 10 6 0 11 -4 11 -10z m940 -30 c0 -5 -5 -10 -11 -10 -5 0 -7 5 -4 10 3 6 8
10 11 10 2 0 4 -4 4 -10z m-229 -26 c12 -15 11 -16 -9 -10 -16 5 -27 3 -35 -7
-7 -8 -22 -18 -33 -21 -16 -5 -23 -2 -27 14 -5 20 8 29 15 10 2 -6 18 -2 38 9
19 11 36 20 36 20 1 1 8 -6 15 -15z m149 -4 c13 -8 13 -10 -2 -10 -9 0 -20 5
-23 10 -8 13 5 13 25 0z m-810 -30 c0 -5 -5 -10 -11 -10 -5 0 -7 5 -4 10 3 6
8 10 11 10 2 0 4 -4 4 -10z m435 -24 c23 -10 26 -14 13 -19 -9 -3 -22 0 -28 8
-6 7 -20 11 -30 8 -11 -3 -20 0 -20 6 0 14 27 13 65 -3z m-65 -11 c7 -8 19
-15 27 -15 24 0 5 -18 -27 -25 -41 -9 -65 13 -41 37 20 21 26 22 41 3z m40
-96 c0 -14 -17 -10 -23 5 -4 10 -1 13 9 9 7 -3 14 -9 14 -14z m155 1 c3 -5 1
-10 -4 -10 -6 0 -11 5 -11 10 0 6 2 10 4 10 3 0 8 -4 11 -10z"/>
<path d="M1745 3030 c3 -5 8 -10 11 -10 2 0 4 5 4 10 0 6 -5 10 -11 10 -5 0
-7 -4 -4 -10z"/>
<path d="M2025 2960 c-3 -5 1 -10 9 -10 9 0 16 5 16 10 0 6 -4 10 -9 10 -6 0
-13 -4 -16 -10z"/>
<path d="M1202 2740 c0 -14 2 -19 5 -12 2 6 2 18 0 25 -3 6 -5 1 -5 -13z"/>
<path d="M1590 2610 c0 -5 5 -10 11 -10 5 0 7 5 4 10 -3 6 -8 10 -11 10 -2 0
-4 -4 -4 -10z"/>
<path d="M1525 2590 c-3 -5 -1 -10 4 -10 6 0 11 5 11 10 0 6 -2 10 -4 10 -3 0
-8 -4 -11 -10z"/>
<path d="M2110 2325 c0 -8 5 -15 10 -15 6 0 10 7 10 15 0 8 -4 15 -10 15 -5 0
-10 -7 -10 -15z"/>
<path d="M2085 2040 c-3 -5 -2 -10 4 -10 5 0 13 5 16 10 3 6 2 10 -4 10 -5 0
-13 -4 -16 -10z"/>
<path d="M1448 1983 c6 -3 9 -9 6 -15 -5 -8 29 5 44 17 1 1 -12 2 -30 2 -18 1
-27 -1 -20 -4z"/>
<path d="M1316 1913 c-6 -14 -5 -15 5 -6 7 7 10 15 7 18 -3 3 -9 -2 -12 -12z"/>
<path d="M1196 1845 c4 -8 10 -15 15 -15 4 0 6 7 3 15 -4 8 -10 15 -15 15 -4
0 -6 -7 -3 -15z"/>
<path d="M1232 1819 c1 -12 10 -24 18 -26 12 -4 12 -3 1 5 -7 6 -9 11 -3 13 6
2 4 10 -5 18 -13 12 -14 10 -11 -10z"/>
<path d="M1138 1823 c7 -3 16 -2 19 1 4 3 -2 6 -13 5 -11 0 -14 -3 -6 -6z"/>
<path d="M2453 1899 c-24 -12 -43 -25 -43 -30 0 -5 -10 -9 -22 -9 -13 0 -32
-7 -42 -15 -10 -8 -23 -12 -27 -9 -5 3 -9 0 -9 -5 0 -6 -9 -11 -19 -11 -29 0
-33 -15 -5 -16 13 -1 24 2 24 8 0 5 5 6 10 3 6 -4 18 -1 26 6 8 6 18 9 21 5 4
-4 1 -11 -7 -16 -8 -6 -10 -10 -5 -10 6 0 18 9 28 20 10 12 22 18 27 15 6 -4
17 0 25 7 33 30 45 38 54 38 6 0 15 9 21 20 14 27 -2 26 -57 -1z"/>
<path d="M2366 1902 c-3 -5 1 -15 9 -22 16 -14 20 -3 6 19 -5 8 -11 9 -15 3z"/>
<path d="M2325 1860 c-3 -5 -1 -10 4 -10 6 0 11 5 11 10 0 6 -2 10 -4 10 -3 0
-8 -4 -11 -10z"/>
<path d="M2255 1780 c-3 -5 -2 -10 4 -10 5 0 13 5 16 10 3 6 2 10 -4 10 -5 0
-13 -4 -16 -10z"/>
<path d="M2297 1783 c-10 -9 -9 -23 2 -23 5 0 11 7 15 15 5 15 -5 20 -17 8z"/>
<path d="M2340 1781 c0 -5 5 -13 10 -16 6 -3 10 -2 10 4 0 5 -4 13 -10 16 -5
3 -10 2 -10 -4z"/>
<path d="M2217 1730 c-5 -18 39 -55 48 -40 3 5 -2 10 -11 10 -14 0 -15 3 -6
12 7 7 12 18 12 24 0 18 -38 13 -43 -6z"/>
<path d="M2092 1701 c2 -7 -3 -16 -9 -18 -7 -3 -13 0 -13 6 0 6 -7 11 -15 11
-8 0 -15 -4 -15 -10 0 -5 -5 -10 -11 -10 -6 0 -20 -12 -31 -26 -21 -26 -58
-30 -87 -9 -12 8 -13 7 -6 -4 4 -8 8 -30 9 -50 1 -20 5 -34 11 -31 6 3 10 15
10 28 -1 12 3 22 7 22 4 0 8 -6 8 -14 0 -23 34 -24 46 -1 5 11 18 19 27 17 26
-4 54 15 71 50 12 23 13 35 5 42 -7 8 -10 7 -7 -3z"/>
<path d="M1850 1601 c0 -11 5 -23 11 -27 7 -4 9 0 5 14 -5 15 -2 22 11 25 14
4 13 5 -4 6 -17 1 -23 -5 -23 -18z"/>
<path d="M2059 1599 c-12 -10 -26 -19 -31 -19 -5 0 -8 -6 -6 -12 3 -7 -6 -21
-18 -31 -20 -15 -27 -16 -46 -5 -46 25 -71 16 -61 -22 7 -26 41 -32 48 -9 4
10 11 19 16 19 14 0 11 -26 -6 -40 -9 -7 -14 -15 -11 -17 2 -2 18 9 35 26 18
17 38 31 46 31 8 0 15 4 15 10 0 13 88 52 100 45 6 -3 10 1 10 9 0 9 -1 16 -3
16 -1 0 -16 4 -34 9 -26 8 -36 6 -54 -10z"/>
<path d="M1950 1556 c0 -9 5 -16 10 -16 6 0 10 4 10 9 0 6 -4 13 -10 16 -5 3
-10 -1 -10 -9z"/>
<path d="M2170 1560 c-13 -8 -12 -10 3 -10 9 0 17 5 17 10 0 12 -1 12 -20 0z"/>
<path d="M2110 1555 c0 -5 5 -17 10 -25 5 -8 10 -10 10 -5 0 6 -5 17 -10 25
-5 8 -10 11 -10 5z"/>
<path d="M1017 1331 c10 -10 20 -14 21 -10 2 5 13 9 25 9 33 0 13 11 -28 15
-35 3 -36 2 -18 -14z"/>
<path d="M978 1303 c21 -8 13 -21 -10 -15 -15 3 -19 2 -14 -7 11 -17 116 -12
109 6 -6 16 -23 17 -23 1 -1 -8 -6 -6 -14 5 -7 9 -24 17 -37 16 -13 0 -18 -3
-11 -6z"/>
<path d="M1106 1283 c-11 -11 -6 -23 9 -23 8 0 15 -4 15 -10 0 -5 5 -10 10
-10 6 0 10 6 10 13 0 14 -35 39 -44 30z"/>
<path d="M1032 1216 c-12 -7 -26 -17 -30 -21 -4 -5 -2 -5 5 -1 15 8 37 -30 29
-50 -3 -8 -1 -14 4 -14 6 0 10 -6 10 -14 0 -15 48 -28 56 -15 3 5 -6 9 -20 9
-18 0 -24 4 -20 15 4 8 1 15 -5 15 -6 0 -11 10 -11 21 0 18 5 21 30 17 34 -5
36 -1 14 30 -17 24 -28 26 -62 8z"/>
<path d="M1135 1220 c-3 -5 1 -10 10 -10 9 0 13 5 10 10 -3 6 -8 10 -10 10 -2
0 -7 -4 -10 -10z"/>
<path d="M2230 1196 c0 -2 7 -6 15 -10 8 -3 15 -1 15 4 0 6 -7 10 -15 10 -8 0
-15 -2 -15 -4z"/>
<path d="M2185 1110 c3 -5 8 -10 11 -10 2 0 4 5 4 10 0 6 -5 10 -11 10 -5 0
-7 -4 -4 -10z"/>
<path d="M1404 918 c-4 -6 -2 -14 4 -16 7 -2 12 -10 12 -17 0 -7 11 -15 25
-17 27 -6 35 9 9 19 -8 3 -13 12 -10 20 3 8 1 11 -4 8 -6 -3 -10 -1 -10 4 0
15 -17 14 -26 -1z"/>
<path d="M1530 850 c0 -5 5 -10 10 -10 6 0 10 5 10 10 0 6 -4 10 -10 10 -5 0
-10 -4 -10 -10z"/>
<path d="M1995 1860 c-3 -5 1 -10 10 -10 9 0 13 5 10 10 -3 6 -8 10 -10 10 -2
0 -7 -4 -10 -10z"/>
<path d="M1335 1720 c3 -5 11 -10 16 -10 6 0 7 5 4 10 -3 6 -11 10 -16 10 -6
0 -7 -4 -4 -10z"/>
<path d="M1327 1643 c-4 -3 -7 -18 -7 -32 1 -23 2 -24 11 -8 5 9 8 21 4 26 -3
5 1 12 7 14 7 3 8 6 2 6 -6 1 -14 -2 -17 -6z"/>
<path d="M1373 1643 c-7 -2 -13 -9 -13 -15 0 -7 5 -6 14 1 7 6 21 9 30 5 9 -3
16 -1 16 5 0 11 -25 14 -47 4z"/>
<path d="M1470 1600 c0 -6 7 -10 15 -10 8 0 15 2 15 4 0 2 -7 6 -15 10 -8 3
-15 1 -15 -4z"/>
<path d="M1075 1460 c3 -5 -3 -10 -14 -10 -12 0 -21 -4 -21 -10 0 -5 9 -10 20
-10 11 0 20 2 20 4 0 2 3 11 6 20 3 9 1 16 -6 16 -6 0 -8 -4 -5 -10z"/>
<path d="M2065 3250 c3 -5 8 -10 11 -10 2 0 4 5 4 10 0 6 -5 10 -11 10 -5 0
-7 -4 -4 -10z"/>
<path d="M815 3220 c-3 -5 -1 -10 4 -10 6 0 11 5 11 10 0 6 -2 10 -4 10 -3 0
-8 -4 -11 -10z"/>
<path d="M2522 3200 c-12 -12 -22 -16 -22 -11 0 6 -16 5 -41 -2 -22 -7 -41
-16 -41 -22 0 -5 -4 -15 -9 -22 -7 -8 -1 -13 23 -18 26 -6 35 -4 46 14 8 11
21 21 28 21 8 0 14 5 14 12 0 6 7 20 17 30 22 24 12 23 -15 -2z"/>
<path d="M790 3200 c0 -5 5 -10 11 -10 5 0 7 5 4 10 -3 6 -8 10 -11 10 -2 0
-4 -4 -4 -10z"/>
<path d="M538 3193 c-16 -2 -28 -8 -28 -12 0 -11 49 -1 56 10 3 5 4 8 2 8 -2
-1 -15 -4 -30 -6z"/>
<path d="M600 3191 c0 -6 17 -11 39 -11 22 0 44 -6 51 -15 9 -10 9 -15 1 -15
-6 0 -11 5 -11 10 0 6 -7 10 -16 10 -14 0 -14 -3 -4 -15 7 -8 20 -15 29 -15 9
0 29 -7 44 -15 15 -8 25 -10 22 -5 -4 6 -1 10 4 10 6 0 11 -7 11 -16 0 -8 4
-13 10 -9 18 11 -3 36 -49 59 -54 28 -131 43 -131 27z"/>
<path d="M842 3186 c7 -7 19 -11 27 -8 11 4 10 7 -5 13 -29 12 -36 10 -22 -5z"/>
<path d="M2602 3145 c-18 -8 -31 -19 -28 -24 3 -5 -2 -7 -12 -4 -10 2 -30 -7
-47 -22 -25 -21 -27 -27 -15 -35 10 -6 20 -4 30 5 51 46 229 66 257 29 11 -13
17 -15 20 -6 8 20 21 14 37 -15 10 -18 15 -22 16 -12 0 24 -36 65 -72 83 -39
20 -141 20 -186 1z m18 -19 c0 -2 -7 -7 -16 -10 -8 -3 -12 -2 -9 4 6 10 25 14
25 6z"/>
<path d="M2230 3140 c0 -6 7 -10 15 -10 8 0 15 2 15 4 0 2 -7 6 -15 10 -8 3
-15 1 -15 -4z"/>
<path d="M810 3113 c-18 -19 -20 -25 -7 -20 9 3 17 2 17 -3 0 -6 -4 -10 -10
-10 -5 0 -10 -4 -10 -10 0 -5 7 -10 15 -10 8 0 17 14 21 35 3 19 10 32 15 29
5 -3 9 0 9 5 0 19 -24 11 -50 -16z"/>
<path d="M2280 3100 c0 -5 5 -10 11 -10 5 0 7 5 4 10 -3 6 -8 10 -11 10 -2 0
-4 -4 -4 -10z"/>
<path d="M2465 3100 c3 -5 8 -10 11 -10 2 0 4 5 4 10 0 6 -5 10 -11 10 -5 0
-7 -4 -4 -10z"/>
<path d="M809 3025 c-1 -8 -3 -19 -4 -25 -1 -5 -3 -14 -4 -20 0 -5 -9 -7 -18
-3 -15 5 -16 4 -5 -8 11 -12 16 -10 33 10 20 25 26 61 9 61 -5 0 -11 -7 -11
-15z"/>
<path d="M2748 3033 c6 -2 18 -2 25 0 6 3 1 5 -13 5 -14 0 -19 -2 -12 -5z"/>
<path d="M2840 3030 c0 -5 5 -10 10 -10 6 0 10 5 10 10 0 6 -4 10 -10 10 -5 0
-10 -4 -10 -10z"/>
<path d="M1155 3000 c3 -5 11 -10 16 -10 6 0 7 5 4 10 -3 6 -11 10 -16 10 -6
0 -7 -4 -4 -10z"/>
<path d="M2348 2965 c5 -29 8 -31 15 -11 3 8 0 19 -7 25 -10 9 -12 6 -8 -14z"/>
<path d="M2753 2963 c9 -2 23 -2 30 0 6 3 -1 5 -18 5 -16 0 -22 -2 -12 -5z"/>
<path d="M2835 2950 c-3 -5 -1 -10 4 -10 6 0 11 5 11 10 0 6 -2 10 -4 10 -3 0
-8 -4 -11 -10z"/>
<path d="M729 2923 c-11 -15 -11 -16 1 -5 19 17 33 15 26 -3 -8 -22 1 -18 14
5 9 17 8 20 -8 20 -11 0 -26 -8 -33 -17z"/>
<path d="M2365 2921 c-3 -5 -1 -12 5 -16 5 -3 10 1 10 9 0 18 -6 21 -15 7z"/>
<path d="M2743 2893 c9 -2 23 -2 30 0 6 3 -1 5 -18 5 -16 0 -22 -2 -12 -5z"/>
<path d="M2836 2888 c12 -19 12 -68 0 -68 -7 0 -7 -3 1 -8 16 -10 20 -47 6
-47 -7 0 -13 -3 -13 -7 0 -5 0 -17 0 -29 0 -13 4 -18 13 -13 8 6 8 3 -1 -9
-12 -14 -11 -19 3 -33 9 -9 14 -23 11 -30 -3 -7 -1 -16 5 -20 6 -3 9 -16 8
-27 -2 -12 3 -32 10 -45 7 -13 10 -30 7 -37 -2 -7 2 -16 10 -19 24 -9 16 -34
-13 -39 l-28 -4 28 -2 c29 -1 57 -21 57 -40 0 -6 -18 -11 -40 -11 -22 0 -40
-4 -40 -8 0 -4 16 -6 35 -4 25 3 42 -1 55 -13 35 -32 24 -42 -51 -49 -49 -4
-84 -14 -114 -31 -53 -31 -55 -28 -55 93 -1 62 -6 103 -21 142 -11 30 -21 66
-22 80 -4 43 -48 147 -63 147 -21 0 -17 -38 10 -110 13 -34 27 -83 31 -107 4
-25 11 -50 16 -56 5 -6 9 -22 8 -35 -2 -81 3 -149 12 -154 5 -4 6 -13 0 -24
-12 -22 5 -164 25 -202 24 -47 63 -76 118 -87 45 -9 55 -7 96 14 25 13 53 34
62 47 21 30 26 90 10 110 -6 7 -9 17 -5 20 3 4 -1 9 -10 13 -9 3 -13 12 -10
21 3 8 0 25 -7 39 -8 13 -11 26 -8 29 8 9 68 -29 68 -42 0 -7 3 -13 8 -13 19
0 34 -65 30 -130 -3 -59 -8 -74 -31 -98 -15 -15 -27 -34 -27 -41 0 -7 -4 -9
-10 -6 -5 3 -10 1 -10 -4 0 -6 -9 -11 -21 -11 -11 0 -29 -5 -40 -10 -26 -15
-136 7 -161 32 -10 10 -27 18 -38 18 -21 0 -27 -14 -11 -25 12 -7 5 -63 -16
-128 -8 -27 -13 -50 -11 -53 3 -2 19 3 36 11 82 41 154 18 169 -56 5 -25 3
-30 -7 -24 -10 6 -12 4 -7 -8 3 -9 -1 -36 -9 -59 -9 -24 -18 -58 -20 -77 -3
-19 -8 -39 -11 -45 -4 -6 -8 -19 -8 -28 -2 -27 -13 -33 -32 -16 -40 35 -112
46 -160 26 -15 -6 -30 -12 -33 -12 -3 -1 -16 -11 -29 -23 -35 -32 -52 -89 -49
-158 3 -52 1 -60 -16 -63 -19 -4 -46 -25 -46 -36 0 -3 28 -6 62 -8 56 -3 63
-5 79 -33 22 -37 24 -65 4 -65 -8 0 -15 7 -15 16 0 8 -5 12 -10 9 -8 -5 -7
-11 1 -21 15 -18 3 -48 -16 -41 -8 4 -16 -2 -20 -14 -7 -20 -25 -27 -25 -9 0
6 -4 10 -10 10 -5 0 -7 -13 -3 -30 6 -31 -4 -39 -25 -18 -6 6 -15 8 -19 4 -4
-4 1 -15 12 -24 11 -9 18 -16 16 -15 -5 3 -28 -34 -37 -59 -8 -22 -14 -22 -40
-3 -75 52 -221 28 -301 -50 -18 -18 -33 -37 -33 -44 0 -6 -5 -11 -10 -11 -6 0
-10 -6 -9 -12 1 -7 -3 -26 -9 -41 -13 -32 -15 -59 -6 -133 6 -49 14 -58 39
-42 6 3 23 8 39 9 22 3 30 0 32 -14 1 -9 -2 -15 -7 -11 -5 3 -9 -4 -9 -14 0
-16 -5 -19 -22 -14 -13 3 -26 9 -29 15 -4 5 -14 5 -27 -2 -29 -15 -58 -14 -76
5 -12 12 -16 12 -16 2 0 -9 -3 -9 -8 -2 -8 12 -9 12 -107 15 -38 0 -83 -4 -98
-10 -16 -6 -34 -11 -42 -11 -19 0 -28 51 -15 85 12 33 -2 50 -30 35 -36 -19
-166 -11 -180 11 -3 4 -11 4 -18 0 -10 -6 -11 -13 -1 -34 8 -19 9 -36 2 -59
-9 -31 -12 -33 -55 -32 -45 0 -45 0 -38 -27 9 -31 -7 -53 -29 -40 -20 13 -55
5 -94 -20 -37 -24 -50 -43 -22 -33 8 4 15 10 15 14 0 19 227 -5 252 -27 13
-12 36 -14 98 -11 44 3 80 1 80 -4 0 -18 38 -7 43 13 5 17 9 19 26 9 14 -7 21
-7 21 0 0 5 -6 10 -14 10 -8 0 -16 6 -19 13 -2 7 -11 -1 -20 -18 -14 -26 -16
-27 -17 -9 0 12 -7 25 -16 28 -22 9 -24 8 -24 -9 0 -8 -4 -15 -10 -15 -5 0 -6
8 -3 18 5 14 4 15 -8 6 -19 -14 -51 -26 -45 -16 2 4 -12 8 -32 8 -20 0 -59 2
-85 5 -44 4 -48 6 -45 29 2 14 9 26 16 26 6 1 21 2 32 3 11 0 19 4 18 9 0 4 1
14 5 22 3 8 8 27 11 43 6 26 9 27 66 27 48 0 61 -4 69 -19 6 -10 8 -20 6 -23
-3 -3 0 -18 5 -35 l11 -30 91 3 c90 2 118 -6 118 -36 0 -6 7 -13 15 -16 8 -4
15 -10 15 -15 0 -4 -7 -6 -15 -3 -8 4 -15 1 -15 -5 0 -6 11 -13 25 -17 18 -5
24 -12 21 -28 -2 -11 -1 -15 1 -9 3 7 8 13 13 13 14 0 9 -83 -6 -105 -24 -33
-15 -38 11 -7 31 37 34 93 5 122 -11 11 -20 24 -20 29 0 6 -11 22 -25 37 -14
15 -25 33 -25 39 0 18 54 24 69 8 6 -7 22 -13 34 -13 12 0 31 -6 42 -14 70
-48 115 -65 178 -67 80 -2 108 13 136 74 21 46 19 86 -6 100 -7 4 -13 14 -13
21 0 24 -97 40 -165 26 -5 -1 -27 -2 -48 -1 -36 1 -37 2 -32 34 14 84 18 97
27 97 5 0 7 4 4 8 -6 10 67 79 98 93 11 5 29 14 38 21 24 17 46 -3 25 -23 -27
-27 -37 -58 -37 -113 0 -47 4 -57 26 -75 36 -28 81 -34 129 -17 48 17 90 84
100 161 7 49 44 133 75 167 40 46 76 78 88 78 18 0 16 104 -3 124 -8 8 -15 17
-15 21 0 9 -27 35 -37 35 -17 0 -28 64 -19 112 9 47 58 119 72 105 4 -4 -2
-28 -14 -55 -12 -26 -22 -58 -24 -72 -3 -31 23 -90 39 -90 6 0 13 -5 15 -12 2
-6 25 -11 54 -11 40 0 58 5 87 27 43 33 44 35 57 153 10 93 31 186 48 220 23
45 24 183 1 183 -4 0 -19 11 -33 25 -20 20 -35 25 -76 25 -47 0 -50 1 -50 26
0 25 2 26 33 19 101 -21 194 -11 229 26 10 10 23 21 30 26 7 4 26 27 41 50 21
34 27 55 27 98 0 69 -18 145 -36 152 -8 3 -14 12 -14 19 0 8 -8 27 -18 42 -36
55 -77 134 -125 244 -26 58 -65 217 -73 291 -4 49 -10 67 -21 67 -9 0 -11 -5
-7 -12z m85 -635 c5 -14 6 -29 2 -33 -13 -12 -63 -21 -63 -11 0 4 -3 23 -6 40
-6 29 -5 31 25 31 25 0 34 -6 42 -27z m-108 -30 c3 -10 8 -35 12 -55 7 -43 12
-45 53 -21 40 23 82 9 95 -30 13 -40 3 -55 -49 -77 -44 -19 -91 -20 -103 -2
-3 5 -16 12 -28 16 -14 4 -23 15 -23 27 0 10 -4 19 -10 19 -15 0 -12 78 5 110
17 33 41 39 48 13z m-39 -789 c9 -22 -1 -34 -30 -34 -17 0 -24 6 -24 18 0 10
3 22 7 25 12 13 41 7 47 -9z m51 -78 c9 -59 -5 -83 -58 -94 -58 -12 -97 9 -97
53 0 37 15 48 53 41 26 -5 35 -11 30 -21 -3 -9 1 -15 11 -15 9 0 20 15 27 40
7 22 16 40 20 40 4 0 11 -20 14 -44z m-425 -492 c11 -12 10 -18 -4 -32 -20
-20 -49 -6 -54 27 -3 17 2 21 21 21 14 0 30 -7 37 -16z m50 -76 c0 -83 -63
-129 -135 -96 -27 12 -31 31 -15 72 12 31 36 33 66 5 25 -24 41 -19 54 17 12
30 30 31 30 2z m-138 -224 c22 -8 28 -48 12 -79 -7 -14 -11 -32 -7 -41 3 -8 2
-14 -3 -13 -21 4 -35 -2 -29 -11 3 -5 -1 -10 -10 -10 -11 0 -15 5 -11 15 4 12
-3 15 -40 13 -30 -1 -50 4 -62 15 -15 16 -15 17 8 18 14 1 30 1 37 0 7 -1 10
12 7 38 -2 23 2 43 9 49 15 12 49 21 62 16 6 -2 17 -7 27 -10z m29 -91 c-12
-20 -14 -14 -5 12 4 9 9 14 11 11 3 -2 0 -13 -6 -23z m-961 -23 c11 -8 7 -9
-15 -4 -37 8 -45 14 -19 14 10 0 26 -5 34 -10z m870 -30 c0 -5 -5 -10 -11 -10
-5 0 -7 5 -4 10 3 6 8 10 11 10 2 0 4 -4 4 -10z"/>
<path d="M438 2873 c7 -3 16 -2 19 1 4 3 -2 6 -13 5 -11 0 -14 -3 -6 -6z"/>
<path d="M677 2832 c-13 -3 -15 -10 -11 -28 4 -17 2 -24 -8 -24 -15 0 -43 -47
-39 -64 1 -5 -4 -13 -11 -18 -11 -8 -11 -10 0 -15 11 -4 11 -8 0 -22 -17 -20
-62 -161 -54 -168 3 -4 1 -12 -6 -20 -8 -10 -8 -17 1 -26 9 -9 6 -16 -11 -30
-13 -10 -18 -20 -13 -23 6 -2 9 -22 7 -44 -4 -36 -6 -40 -26 -34 -11 4 -28 15
-37 25 -20 23 -94 49 -141 49 l-37 0 15 28 c19 37 18 40 -10 35 -18 -4 -23
-10 -21 -24 2 -11 -2 -19 -10 -19 -19 0 -57 -51 -100 -134 -31 -61 -35 -75
-35 -147 0 -43 4 -79 8 -79 5 0 17 -16 28 -35 10 -19 22 -35 26 -35 5 0 16 -8
26 -17 32 -33 67 -41 166 -39 94 1 96 1 96 -22 0 -19 -4 -22 -20 -17 -52 17
-150 -28 -150 -68 0 -9 -4 -18 -10 -22 -15 -10 -1 -111 25 -170 18 -41 27
-107 29 -216 l1 -91 44 -39 c52 -46 88 -50 155 -18 38 19 45 27 50 59 7 44 -2
99 -19 120 -39 48 -20 62 25 19 27 -26 33 -40 37 -88 5 -55 4 -58 -36 -105
-88 -102 -91 -134 -19 -209 69 -71 95 -107 104 -143 4 -16 10 -34 15 -39 4 -6
13 -41 19 -78 7 -37 16 -67 21 -67 5 0 8 -3 7 -8 -5 -12 40 -55 50 -48 6 3 12
-1 16 -9 15 -40 134 15 136 63 0 6 5 12 10 12 6 0 10 5 10 10 0 19 -40 -10
-50 -34 -7 -21 -14 -23 -55 -20 -25 2 -52 7 -58 11 -7 4 -18 8 -26 8 -8 0 -16
7 -18 15 -4 13 -3 13 7 0 10 -12 11 -12 4 5 -14 38 -17 85 -5 85 6 0 15 -8 18
-17 11 -29 25 -33 54 -12 31 22 60 24 77 7 9 -9 12 -9 12 0 0 7 5 12 11 12 5
0 7 -4 4 -10 -3 -5 -1 -10 4 -10 13 0 13 2 2 32 -5 13 -8 26 -7 29 0 4 -7 16
-17 26 -27 31 -10 33 41 5 45 -24 111 -84 113 -103 2 -10 5 -25 9 -36 1 -5 5
6 9 22 8 36 -11 79 -48 115 -31 29 -79 53 -91 45 -4 -3 -10 2 -14 10 -9 24
-92 19 -154 -10 -65 -30 -62 -30 -62 -6 0 11 -4 23 -10 26 -5 3 -10 13 -10 21
0 20 -35 69 -91 124 -41 41 -44 48 -37 77 5 18 17 34 28 38 11 4 20 11 20 17
0 6 18 9 45 6 50 -4 60 11 23 36 -19 13 -21 24 -19 78 2 73 -14 120 -57 161
-26 25 -36 28 -102 28 -59 0 -76 -3 -94 -20 -27 -26 -46 -27 -47 -3 -4 86 -9
112 -28 147 -13 24 -21 58 -21 86 0 40 4 51 31 73 35 30 73 33 126 11 47 -20
58 -9 44 41 -6 22 -11 63 -11 92 0 54 -10 64 -39 38 -23 -20 -112 -34 -165
-26 -44 7 -116 46 -116 64 0 5 -7 14 -16 21 -22 16 -30 104 -14 161 14 50 53
97 88 106 30 8 29 -8 -8 -85 -35 -75 -37 -94 -10 -145 16 -30 30 -42 63 -52
57 -18 83 -18 142 1 83 28 112 102 116 294 1 55 6 105 10 111 5 6 11 37 15 70
4 32 17 80 30 106 13 26 24 55 24 64 0 9 12 38 26 64 29 52 29 88 1 82z m-279
-510 c9 -6 10 -16 2 -39 -10 -27 -14 -30 -38 -24 -25 7 -30 20 -23 64 1 9 43
9 59 -1z m94 -69 c38 -92 -2 -168 -99 -187 -38 -7 -105 32 -114 66 -9 34 11
72 40 76 26 4 81 -16 81 -29 0 -5 6 -6 14 -3 8 3 17 27 21 55 6 39 11 49 26
49 12 0 24 -11 31 -27z m30 -769 c12 -11 -5 -44 -23 -44 -14 0 -19 7 -19 25 0
18 5 25 18 25 10 0 21 -3 24 -6z m-77 -76 c4 -18 7 -39 6 -45 -3 -23 15 -14
27 13 10 21 18 25 50 22 36 -3 37 -5 40 -44 3 -39 1 -41 -36 -58 -78 -35 -143
17 -127 101 12 64 27 68 40 11z m437 -532 c17 -24 17 -24 -14 -35 -44 -15 -45
-15 -46 24 -1 30 2 35 21 35 12 0 30 -11 39 -24z m192 -32 c5 -14 4 -15 -9 -4
-17 14 -19 20 -6 20 5 0 12 -7 15 -16z"/>
<path d="M2750 2830 c0 -5 15 -10 33 -10 24 0 28 3 17 10 -20 13 -50 13 -50 0z"/>
<path d="M435 2820 c3 -6 -1 -13 -10 -16 -10 -4 -13 -13 -9 -26 4 -15 3 -18
-7 -13 -9 6 -11 4 -6 -8 3 -9 2 -19 -4 -22 -5 -4 -9 -12 -8 -18 1 -7 1 -23 0
-37 -1 -17 -4 -21 -10 -12 -12 19 -32 -34 -34 -91 -1 -34 -5 -43 -16 -39 -9 3
-12 1 -8 -5 4 -6 3 -13 -1 -15 -5 -1 -12 -15 -15 -29 -5 -19 -3 -26 9 -26 17
0 74 111 74 144 0 10 10 39 21 64 12 24 23 55 24 69 1 14 7 38 13 53 15 36 15
37 -4 37 -8 0 -12 -5 -9 -10z"/>
<path d="M2487 2728 c11 -18 14 -48 5 -48 -9 0 -7 -78 2 -105 10 -29 40 -89
46 -95 4 -3 12 -20 19 -37 11 -27 16 -31 32 -23 15 9 17 18 13 51 -4 23 -15
60 -25 83 -10 22 -19 48 -19 57 0 22 -25 70 -42 80 -10 7 -10 9 1 9 11 0 9 6
-7 20 -24 22 -37 26 -25 8z m30 -112 c-7 -13 -15 -22 -19 -20 -8 5 13 44 23
44 4 0 2 -11 -4 -24z"/>
<path d="M2770 2700 c0 -12 8 -12 35 0 18 8 17 9 -7 9 -16 1 -28 -3 -28 -9z"/>
<path d="M2795 2640 c-4 -6 5 -10 19 -10 14 0 26 5 26 10 0 6 -9 10 -19 10
-11 0 -23 -4 -26 -10z"/>
<path d="M2841 2521 c-7 -5 -9 -11 -4 -14 5 -3 15 -2 22 2 7 5 9 11 4 14 -5 3
-15 2 -22 -2z"/>
<path d="M1054 2273 c-10 -37 -12 -133 -2 -133 9 0 11 11 8 63 -1 23 3 37 10
37 7 0 10 -6 7 -13 -3 -8 -1 -20 4 -28 6 -9 9 -1 9 28 0 71 -21 98 -36 46z"/>
<path d="M950 2262 c0 -10 6 -42 14 -72 13 -49 13 -55 -2 -67 -16 -13 -15 -14
3 -11 21 4 22 9 12 108 -6 61 -6 60 -17 60 -5 0 -10 -8 -10 -18z"/>
<path d="M1171 2256 c-6 -16 -21 -42 -32 -58 -12 -16 -18 -32 -14 -36 4 -4 10
-1 12 6 8 23 25 12 21 -13 -9 -45 17 -51 62 -15 22 17 40 26 40 20 0 -7 -10
-20 -22 -29 -13 -11 -19 -24 -15 -34 7 -18 37 -24 37 -7 0 5 -7 7 -15 4 -22
-9 -18 10 6 32 28 25 39 56 26 72 -6 7 -6 12 -1 11 19 -3 34 1 34 11 0 6 -12
10 -26 10 -23 0 -25 -3 -20 -25 5 -19 2 -25 -10 -25 -9 0 -24 -8 -33 -18 -9
-10 -24 -21 -33 -25 -22 -8 -28 45 -10 91 7 19 11 39 9 45 -3 7 -10 -1 -16
-17z"/>
<path d="M850 2221 c0 -19 13 -42 29 -50 13 -7 17 -5 17 9 0 10 -4 16 -9 13
-5 -3 -11 4 -14 16 -5 21 -23 30 -23 12z"/>
<path d="M980 2223 c0 -5 5 -15 10 -23 8 -12 10 -11 10 8 0 12 -4 22 -10 22
-5 0 -10 -3 -10 -7z"/>
<path d="M927 2154 c9 -15 19 -21 21 -15 4 13 -16 41 -29 41 -5 0 -2 -12 8
-26z"/>
<path d="M1000 2175 c0 -18 19 -40 26 -32 4 4 0 15 -9 24 -9 10 -17 13 -17 8z"/>
<path d="M780 2150 c0 -5 6 -10 14 -10 8 0 16 -6 19 -14 7 -17 50 -29 44 -13
-2 7 -13 16 -25 22 -12 5 -22 13 -22 17 0 5 -7 8 -15 8 -8 0 -15 -4 -15 -10z"/>
<path d="M1360 2150 c0 -5 -9 -10 -21 -10 -13 0 -18 -4 -13 -12 4 -7 3 -8 -5
-4 -6 4 -18 0 -27 -9 -21 -20 -10 -32 13 -14 11 9 14 10 9 2 -4 -8 -2 -13 7
-13 7 0 20 11 27 25 7 14 20 25 27 25 8 0 11 5 8 10 -3 6 -10 10 -16 10 -5 0
-9 -4 -9 -10z"/>
<path d="M911 2118 c0 -14 -7 -28 -13 -31 -7 -2 -10 -8 -5 -12 13 -15 29 12
24 41 l-4 29 -2 -27z"/>
<path d="M840 2080 c0 -5 5 -10 10 -10 6 0 10 5 10 10 0 6 -4 10 -10 10 -5 0
-10 -4 -10 -10z"/>
<path d="M1295 2080 c-3 -5 -1 -10 4 -10 6 0 11 5 11 10 0 6 -2 10 -4 10 -3 0
-8 -4 -11 -10z"/>
<path d="M856 2050 c-17 -6 -18 -7 -3 -13 9 -3 19 -2 23 4 9 15 2 18 -20 9z"/>
<path d="M1265 2050 c-7 -12 27 -22 37 -12 6 6 1 12 -11 15 -12 3 -23 2 -26
-3z"/>
<path d="M488 1773 c6 -2 18 -2 25 0 6 3 1 5 -13 5 -14 0 -19 -2 -12 -5z"/>
<path d="M2829 1725 c42 -19 47 -19 31 0 -7 8 -24 15 -39 15 -25 -1 -25 -1 8
-15z"/>
<path d="M2850 1660 c0 -5 5 -10 10 -10 6 0 10 5 10 10 0 6 -4 10 -10 10 -5 0
-10 -4 -10 -10z"/>
<path d="M2575 1130 c3 -5 8 -10 11 -10 2 0 4 5 4 10 0 6 -5 10 -11 10 -5 0
-7 -4 -4 -10z"/>
<path d="M2440 952 c0 -4 9 -13 20 -20 22 -13 27 -3 8 16 -14 14 -28 16 -28 4z"/>
<path d="M1120 650 c0 -17 -7 -20 -44 -20 -25 0 -48 5 -51 10 -7 11 -77 13
-110 4 -11 -3 -29 -17 -39 -31 l-19 -26 24 6 c13 3 40 10 60 15 33 9 36 7 58
-26 12 -19 18 -31 12 -27 -7 4 -12 -4 -12 -19 -1 -14 -2 -32 -3 -38 -1 -8 9
-12 24 -11 32 3 74 -6 66 -14 -9 -9 14 -33 33 -33 10 0 26 6 36 14 18 13 18
14 -8 9 -26 -5 -32 1 -28 33 1 6 -10 16 -24 22 -32 15 -38 15 -30 2 3 -5 2
-10 -4 -10 -16 0 -32 36 -27 62 3 13 5 29 5 36 1 15 51 16 51 1 0 -5 -4 -7
-10 -4 -5 3 -10 2 -10 -3 0 -5 11 -12 24 -14 18 -4 27 1 35 16 9 19 10 18 5
-6 -7 -32 11 -39 19 -8 5 18 -18 80 -29 80 -2 0 -4 -9 -4 -20z"/>
<path d="M1927 604 c-4 -4 -7 -14 -7 -23 0 -11 3 -12 11 -4 6 6 10 16 7 23 -2
6 -7 8 -11 4z"/>
<path d="M1097 546 c-4 -9 -2 -18 3 -21 6 -4 10 -1 10 5 0 6 5 8 11 4 7 -4 10
-1 7 6 -6 20 -25 23 -31 6z"/>
<path d="M1334 533 c-11 -17 -54 -26 -51 -10 5 22 -21 15 -62 -18 -24 -19 -37
-35 -29 -35 8 0 18 3 22 8 4 4 17 8 29 9 12 1 48 8 80 14 47 10 57 16 57 33
-1 21 -1 21 -12 1 -10 -17 -12 -17 -17 -2 -6 16 -7 16 -17 0z m-69 -23 c-3 -5
-12 -10 -18 -10 -7 0 -6 4 3 10 19 12 23 12 15 0z"/>
<path d="M865 460 c3 -5 8 -10 11 -10 2 0 4 5 4 10 0 6 -5 10 -11 10 -5 0 -7
-4 -4 -10z"/>
<path d="M1050 451 c0 -5 7 -12 16 -15 24 -9 28 -7 14 9 -14 17 -30 20 -30 6z"/>
<path d="M1800 430 c0 -4 13 -10 29 -12 17 -2 28 -1 26 3 -7 10 -55 18 -55 9z"/>
<path d="M995 410 c-16 -7 -17 -9 -3 -9 9 -1 20 4 23 9 7 11 7 11 -20 0z"/>
<path d="M1829 389 c12 -12 24 -19 27 -16 7 6 -25 37 -39 37 -6 0 -1 -9 12
-21z"/>
<path d="M1216 383 c-6 -14 -5 -15 5 -6 7 7 10 15 7 18 -3 3 -9 -2 -12 -12z"/>
<path d="M1867 391 c18 -20 -22 -82 -50 -77 -12 2 -16 1 -9 -1 6 -3 12 -12 12
-21 0 -12 3 -13 12 -4 14 14 32 16 23 2 -4 -6 1 -7 11 -3 11 4 13 8 6 11 -15
5 -16 29 0 38 8 5 9 2 5 -9 -3 -10 -2 -17 4 -17 15 0 7 70 -11 83 -12 9 -13 8
-3 -2z"/>
<path d="M1695 359 c-9 -14 3 -59 15 -59 6 0 10 5 10 10 0 6 -4 10 -8 10 -4 0
-8 8 -8 19 0 12 5 17 15 13 9 -3 12 -1 7 6 -9 15 -23 15 -31 1z"/>
<path d="M1737 313 c-13 -12 -7 -33 9 -33 10 0 14 5 10 16 -3 8 -2 12 4 9 6
-3 10 -1 10 4 0 12 -23 15 -33 4z"/>
<path d="M1690 284 c0 -2 7 -16 16 -29 16 -24 15 -25 -4 -25 -12 0 -24 5 -27
10 -11 17 -23 11 -18 -9 3 -13 11 -17 24 -14 13 4 19 0 19 -11 0 -9 4 -16 10
-16 5 0 7 8 3 18 -6 15 -4 15 16 -2 l22 -20 -16 30 c-8 16 -15 36 -15 45 0 9
-7 19 -15 23 -8 3 -15 3 -15 0z"/>
<path d="M1778 283 c6 -2 18 -2 25 0 6 3 1 5 -13 5 -14 0 -19 -2 -12 -5z"/>
<path d="M1570 253 c0 -4 5 -15 10 -23 8 -13 10 -13 10 2 0 9 -4 20 -10 23 -5
3 -10 3 -10 -2z"/>
<path d="M1445 220 c-3 -5 -1 -10 4 -10 6 0 11 5 11 10 0 6 -2 10 -4 10 -3 0
-8 -4 -11 -10z"/>
<path d="M1628 213 c7 -3 16 -2 19 1 4 3 -2 6 -13 5 -11 0 -14 -3 -6 -6z"/>
<path d="M1785 170 c3 -5 10 -10 16 -10 5 0 9 5 9 10 0 6 -7 10 -16 10 -8 0
-12 -4 -9 -10z"/>
<path d="M1830 170 c0 -5 7 -7 15 -4 8 4 15 8 15 10 0 2 -7 4 -15 4 -8 0 -15
-4 -15 -10z"/>
</g>
</svg>
